<?xml version="1.0" encoding="UTF-8" standalone="no"?>
<!-- Created with Inkscape (http://www.inkscape.org/) -->

<svg
   width="162.56mm"
   height="128.5mm"
   viewBox="0 0 162.55999 128.5"
   version="1.1"
   id="svg5"
   inkscape:version="1.2.2 (732a01da63, 2022-12-09)"
   sodipodi:docname="matrix-sequencer.svg"
   xmlns:inkscape="http://www.inkscape.org/namespaces/inkscape"
   xmlns:sodipodi="http://sodipodi.sourceforge.net/DTD/sodipodi-0.dtd"
   xmlns="http://www.w3.org/2000/svg"
   xmlns:svg="http://www.w3.org/2000/svg">
  <sodipodi:namedview
     id="namedview7"
     pagecolor="#b1b1b1"
     bordercolor="#000000"
     borderopacity="0.25"
     inkscape:showpageshadow="2"
     inkscape:pageopacity="0"
     inkscape:pagecheckerboard="0"
     inkscape:deskcolor="#d1d1d1"
     inkscape:document-units="mm"
     showgrid="true"
     inkscape:zoom="1.5625561"
     inkscape:cx="228.4718"
     inkscape:cy="330.86812"
     inkscape:window-width="1827"
     inkscape:window-height="1057"
     inkscape:window-x="85"
     inkscape:window-y="-8"
     inkscape:window-maximized="1"
     inkscape:current-layer="layer1">
    <inkscape:grid
       type="xygrid"
       id="grid10451"
       spacingx="2.5399999"
       spacingy="2.5399999"
       units="mm"
       color="#e500d3"
       opacity="0.14901961"
       empcolor="#e500d3"
       empopacity="0.14901961"
       originx="0"
       originy="0" />
  </sodipodi:namedview>
  <defs
     id="defs2" />
  <g
     inkscape:label="panel"
     inkscape:groupmode="layer"
     id="layer1"
     style="display:inline">
    <rect
       style="display:inline;fill:#b1b1b1;fill-opacity:1;stroke:none;stroke-width:0.213809;stroke-linejoin:round;paint-order:markers stroke fill"
       id="background"
       width="162.56"
       height="129.53999"
       x="-1.7763568e-15"
       y="0"
       ry="1.9073487e-07"
       inkscape:label="background"
       sodipodi:insensitive="true" />
    <g
       aria-label="R3tr0's Matr1x-S3qu3nc3r"
       transform="matrix(1.03211,0,0,1.0611612,24.657935,1.4496855)"
       id="panel-label"
       style="font-size:4.93889px;white-space:pre;inline-size:54.6375;display:inline;fill:#4e4e4e;stroke:#4e4e4e;stroke-width:0.185902"
       inkscape:label="panel-label">
      <path
         d="m 34.871097,2.2801991 -0.424745,0.4247446 q 0.0247,0.064206 0.158045,0.1827389 0.118533,0.098778 0.118533,0.1728612 v 0.019756 l -0.390172,-0.2765778 -0.06914,0.064205 0.321028,0.3951112 -0.414867,-0.31115 -0.602544,0.5531557 q 0.380294,0.4543778 0.75565,0.9136946 0.518583,0.6667501 0.528461,0.9779002 Q 34.698235,5.3126776 34.614274,5.1447553 34.480924,4.9027497 34.446352,4.8582997 34.273491,4.6508663 34.169774,4.5076385 34.01173,4.2853885 33.853685,4.0581995 33.621557,3.7421106 33.512902,3.6729661 q -0.0099,0.034572 -0.0099,0.064206 0,0.069144 0.07902,0.1580445 0.07902,0.0889 0.09384,0.1382889 0.493889,0.5778501 0.893939,1.3730114 -0.40005,-0.3901723 -1.027289,-1.3631336 -0.03457,0.00988 -0.03457,0.064205 0,0.049389 0.01976,0.138289 0.02469,0.0889 0.02469,0.1382889 v 0.3358445 q 0,0.014817 0.01482,0.04445 0.01482,0.024694 0.01482,0.04445 v 0.5482168 q 0,0.1037167 -0.0889,0.093839 -0.05927,-0.6766279 -0.05927,-1.4964837 0,-0.083961 -0.167923,-0.1975556 0.04445,0.6865058 0.04445,1.5853837 0,0.024694 -0.07902,0.069145 l -0.08396,-1.5409337 -0.1778,0.039511 0.1778,-0.2667 q -0.02469,-0.00988 -0.04939,-0.00988 h -0.03457 L 32.81158,3.8310106 33.009135,3.5247994 q -0.06914,-0.054328 -0.04445,-0.13335 l -0.09384,-0.1531056 q 0.06914,-0.00494 0.128411,0.054328 0.05927,0.059267 0.108656,0.1135945 0.05433,-0.019756 0.05433,-0.098778 0,-0.098778 -0.07902,-0.1728612 -0.07408,-0.074083 -0.148166,-0.1382889 0,-0.024694 0.06421,-0.0889 0.04939,0.034572 0.148167,0.093839 l 0.01482,-1.0223502 q 0,-0.014817 -0.09878,-0.1481667 -0.09878,-0.138289 -0.113595,-0.2024945 0.04939,0.00988 0.202495,0.1580444 0.0099,-0.00988 0.0099,-0.04445 V 1.6183879 q -0.09878,-0.059267 -0.123473,-0.1284112 0.01482,-0.00988 0.03457,-0.00988 0.03457,0 0.07408,0.019756 0.01482,-0.059267 0.07902,-0.1827389 0.03951,0.029633 0.05433,0.1728611 0.01976,0.1234723 0.128411,0.1629834 0.0049,-0.034572 0.01482,-0.069144 0.0049,-0.00988 0.06421,-0.024694 -0.0049,0.2024945 0.276578,0.5087057 0.22225,0.2173111 0.439561,0.4296834 l 0.484012,-0.3062112 q -0.01482,0.083961 -0.153106,0.2074334 -0.103717,0.083961 -0.207433,0.1679223 l 0.02469,0.069144 z M 34.075935,2.6111048 33.527719,1.9690491 v 0.2370667 q 0.128411,0.1185333 0.256822,0.2370667 0.187678,0.1580445 0.291394,0.1679223 z M 33.43388,1.929538 q 0,-0.1234723 -0.13335,-0.1876779 l -0.01976,0.1580445 q 0.0247,0.054328 0.13335,0.1580445 0,-0.019756 0.0099,-0.059267 0.0099,-0.04445 0.0099,-0.069144 z m 0.8001,0.8396112 -0.02963,-0.079022 h -0.01482 q -0.07408,-0.00494 -0.07408,0.04445 0.04939,0.049389 0.06914,0.049389 0.01482,0 0.02963,-0.00494 0.01482,-0.00988 0.01976,-0.00988 z M 33.917891,2.7197603 33.52278,2.3493436 v 0.6914446 z m 0.167922,0.1481667 q -0.03457,-0.019756 -0.103717,-0.049389 -0.474133,0.3654779 -0.474133,0.4840113 0,0 0.0049,0.024694 0.123472,-0.039511 0.301272,-0.2024945 0.13335,-0.1284111 0.271639,-0.2568223 z M 33.43388,2.3098325 q 0,-0.069145 -0.148167,-0.2024945 l -0.03457,1.0075335 q 0.02963,0.0889 0.08396,0.1086556 0.07902,-0.04445 0.08396,-0.2024945 z m -0.05433,1.1557002 -0.05927,-0.029633 -0.04939,0.093839 0.04939,0.024694 z"
         style="font-family:'2 Prong Tree';-inkscape-font-specification:'2 Prong Tree'"
         id="path3620" />
      <path
         d="m 36.989878,3.4210827 q -0.0049,0.029633 -0.05927,0.1432278 -0.04939,0.1135945 -0.04939,0.1284112 0,0.014817 0.04939,0.1185333 -0.0049,0 -0.128411,0 -0.07902,0 -0.08396,0.069144 l 0.0889,0.1086556 -0.05433,0.054328 -0.113594,-0.074083 q -0.227189,0.227189 -0.429684,0.4840112 -0.187677,0.2370667 -0.370416,0.4790724 -0.237067,0.2913945 -0.439561,0.4049889 0.143227,-0.2963334 0.518583,-0.7358946 0.301272,-0.3407834 0.607483,-0.6865057 -0.04939,-0.054328 -0.108655,-0.054328 -0.0247,0 -0.548217,0.6469946 -0.553156,0.6815668 -0.775406,0.7902224 l 1.185334,-1.4569725 -0.459317,-0.3901723 -0.301272,0.1481667 0.172861,-0.2469445 -0.06914,-0.039511 -0.22225,0.1284112 0.13335,-0.1926167 -0.172862,-0.2074334 q 0.04939,0 0.143228,0.039511 0.09878,0.034572 0.128411,0.069144 L 35.740339,3.0457266 Q 35.676129,2.9864596 35.577356,2.848171 35.681072,2.882743 35.8243,2.9518877 L 36.150267,2.7148215 35.177305,1.3813212 v 0 q 0.07902,-0.00494 0.237067,0.083961 0.202495,0.3407834 0.864306,1.1507614 0.04445,-0.00494 0.09878,-0.069145 L 35.51315,1.3121767 h 0.01976 Q 35.671194,1.29736 36.041611,1.7961879 36.2688,2.1221547 36.495989,2.4481214 L 36.792322,2.285138 q 0.0049,0.019756 -0.0889,0.1432278 -0.0889,0.1234723 -0.118533,0.1481667 L 36.604645,2.601227 36.98,2.374038 36.896039,2.5715936 q -0.05927,0.049389 -0.182739,0.1432279 0.06915,0.083961 0.09878,0.1679222 -0.01482,0.019756 -0.04939,0.019756 -0.02469,0 -0.07902,-0.049389 -0.05433,-0.054328 -0.07408,-0.054328 -0.04939,0 -0.113595,0.069144 l 0.02963,0.1185334 Q 36.461415,2.9667041 36.41697,2.9370711 L 36.204595,3.139566 q 0.118533,0.1234722 0.365477,0.3556001 0.113595,-0.093839 0.187678,-0.1185334 0.01976,0.014817 0.01976,0.034572 0,0.029633 -0.02963,0.074083 -0.02963,0.039511 -0.02963,0.064206 0,0.049389 0.06421,0.083961 z M 36.476234,2.6703714 q -0.07902,0.00494 -0.123473,0.064206 0.0099,0 0.02963,0.019756 0.01975,0.014817 0.03951,0.014817 0.05433,0 0.05433,-0.098778 z m -0.143228,0.182739 q -0.04445,-0.054328 -0.07408,-0.054328 -0.01482,0 -0.03951,0.014817 -0.01976,0.014817 -0.03457,0.014817 l -0.192617,0.1876778 q 0.04445,0.059267 0.07408,0.054328 z m 0.340783,0.8593668 q -0.03457,-0.00494 -0.03457,-0.00494 h -0.0099 q -0.07902,0 -0.07902,0.04445 0,0.04445 0.05433,0.064205 0.03951,-0.039511 0.06914,-0.1037167 z M 36.461417,3.5643105 36.051489,3.2383438 q -0.03457,0.039511 -0.108656,0.1135945 l 0.409928,0.31115 q 0.04445,-0.029633 0.108656,-0.098778 z m -0.5334,-0.4148667 q -0.02963,-0.00988 -0.07408,-0.049389 -0.06421,0.059267 -0.07902,0.1135944 0.02963,0.019756 0.05927,0.019756 0.07408,0 0.09384,-0.083961 z"
         style="font-family:'2 Prong Tree';-inkscape-font-specification:'2 Prong Tree'"
         id="path3622" />
      <path
         d="m 38.965436,1.5492434 q -0.197556,0.1086556 -1.051984,0.1037167 0.01482,0.069144 0.07408,0.083961 0.0049,0 0.113594,0.00494 l 0.834672,0.039511 q -0.370416,0.079022 -0.370416,0.079022 -0.0049,0 -0.671689,-0.00988 0.01975,1.1063114 0.01975,1.1063114 0,0.2864556 -0.01975,0.8643057 -0.01976,0.5778501 -0.01976,0.8643058 0,0.2420056 0.06914,0.4346223 -0.0099,0.024694 -0.04939,0.1926167 -0.07408,0.00494 -0.118534,-0.4247446 0,-0.019756 -0.0049,-0.5185834 -0.0099,-0.9630835 -0.0099,-1.0223502 v -0.404989 q 0,-0.627239 0.02963,-1.0717391 -0.01482,-0.024695 -0.06914,-0.024695 -0.118534,0 -0.118534,0.1481667 V 5.332431 q -0.103717,-0.1481667 -0.113594,-0.1975556 -0.01976,-0.093839 -0.01976,-0.2370667 0,-0.093839 0.0049,-0.2667 0.0099,-0.1778001 0.0099,-0.2420056 0,-0.2469445 0,-0.7309558 0.0049,-0.493889 0.0049,-0.7260168 V 1.9196602 q -0.02963,-0.064206 -0.182739,-0.064206 h -0.908756 q 0.01976,-0.034572 0.09384,-0.054328 0.05433,-0.014817 0.108655,-0.029633 l 0.889001,-0.024695 v -0.13335 l -0.454378,-0.00494 q -0.242006,0 -0.7112,0.079022 0.01976,-0.069144 0.08396,-0.1037166 0.06421,-0.034572 0.128411,-0.064206 l 0.953206,-0.049389 q 0.02963,-0.098778 0.0642,-0.1580445 0.01976,0.014817 0.05927,0.1037167 0.03457,0.069144 0.07408,0.069144 0.01976,0 0.05433,-0.00494 0.03951,-0.00494 0.05433,-0.00988 l 0.03457,-0.1086556 q 0.07408,0.04445 0.06421,0.1135945 l 0.8001,0.029633 q 0.0889,0.019756 0.271639,0.04445 z m -1.165578,0.1432278 q -0.01482,-0.098778 -0.113595,-0.093839 h -0.0099 q 0,0.019756 -0.01976,0.069144 -0.01482,0.04445 -0.01482,0.069144 0.05927,-0.00494 0.158045,-0.04445 z"
         style="font-family:'2 Prong Tree';-inkscape-font-specification:'2 Prong Tree'"
         id="path3624" />
      <path
         d="m 41.153361,2.2801991 -0.424744,0.4247446 q 0.02469,0.064206 0.158044,0.1827389 0.118534,0.098778 0.118534,0.1728612 v 0.019756 l -0.390173,-0.2765778 -0.06914,0.064205 0.321028,0.3951112 -0.414867,-0.31115 -0.602545,0.5531557 q 0.380295,0.4543778 0.755651,0.9136946 0.518583,0.6667501 0.528461,0.9779002 Q 40.9805,5.3126776 40.896539,5.1447553 40.763189,4.9027497 40.728617,4.8582997 40.555756,4.6508663 40.452039,4.5076385 40.293994,4.2853885 40.13595,4.0581995 39.903822,3.7421106 39.795167,3.6729661 q -0.0099,0.034572 -0.0099,0.064206 0,0.069144 0.07902,0.1580445 0.07902,0.0889 0.09384,0.1382889 0.493889,0.5778501 0.893939,1.3730114 -0.40005,-0.3901723 -1.027289,-1.3631336 -0.03457,0.00988 -0.03457,0.064205 0,0.049389 0.01976,0.138289 0.02469,0.0889 0.02469,0.1382889 v 0.3358445 q 0,0.014817 0.01482,0.04445 0.01482,0.024694 0.01482,0.04445 v 0.5482168 q 0,0.1037167 -0.0889,0.093839 -0.05927,-0.6766279 -0.05927,-1.4964837 0,-0.083961 -0.167922,-0.1975556 0.04445,0.6865058 0.04445,1.5853837 0,0.024694 -0.07902,0.069145 l -0.08396,-1.5409337 -0.1778,0.039511 0.1778,-0.2667 q -0.0247,-0.00988 -0.04939,-0.00988 h -0.03457 L 39.093844,3.8310106 39.2914,3.5247994 q -0.06915,-0.054328 -0.04445,-0.13335 L 39.15311,3.2383438 q 0.06914,-0.00494 0.128411,0.054328 0.05927,0.059267 0.108656,0.1135945 0.05433,-0.019756 0.05433,-0.098778 0,-0.098778 -0.07902,-0.1728612 -0.07408,-0.074083 -0.148167,-0.1382889 0,-0.024694 0.06421,-0.0889 0.04939,0.034572 0.148167,0.093839 l 0.01482,-1.0223502 q 0,-0.014817 -0.09878,-0.1481667 -0.09878,-0.138289 -0.113595,-0.2024945 0.04939,0.00988 0.202495,0.1580444 0.0099,-0.00988 0.0099,-0.04445 V 1.6183879 q -0.09878,-0.059267 -0.123472,-0.1284112 0.01482,-0.00988 0.03457,-0.00988 0.03457,0 0.07408,0.019756 0.01482,-0.059267 0.07902,-0.1827389 0.03951,0.029633 0.05433,0.1728611 0.01975,0.1234723 0.128411,0.1629834 0.0049,-0.034572 0.01482,-0.069144 0.0049,-0.00988 0.06421,-0.024694 -0.0049,0.2024945 0.276578,0.5087057 0.22225,0.2173111 0.439561,0.4296834 l 0.484011,-0.3062112 q -0.01482,0.083961 -0.153105,0.2074334 -0.103717,0.083961 -0.207434,0.1679223 l 0.02469,0.069144 z M 40.3582,2.6111048 39.809983,1.9690491 v 0.2370667 q 0.128411,0.1185333 0.256823,0.2370667 0.187677,0.1580445 0.291394,0.1679223 z M 39.716144,1.929538 q 0,-0.1234723 -0.13335,-0.1876779 l -0.01975,0.1580445 q 0.02469,0.054328 0.13335,0.1580445 0,-0.019756 0.0099,-0.059267 0.0099,-0.04445 0.0099,-0.069144 z m 0.800101,0.8396112 -0.02963,-0.079022 h -0.01482 q -0.07408,-0.00494 -0.07408,0.04445 0.04939,0.049389 0.06914,0.049389 0.01482,0 0.02963,-0.00494 0.01482,-0.00988 0.01976,-0.00988 z M 40.200156,2.7197603 39.805044,2.3493436 v 0.6914446 z m 0.167922,0.1481667 q -0.03457,-0.019756 -0.103717,-0.049389 -0.474133,0.3654779 -0.474133,0.4840113 0,0 0.0049,0.024694 Q 39.9186,3.2877323 40.0964,3.1247488 40.22975,2.9963377 40.368039,2.8679265 Z M 39.716144,2.3098325 q 0,-0.069145 -0.148166,-0.2024945 l -0.03457,1.0075335 q 0.02963,0.0889 0.08396,0.1086556 0.07902,-0.04445 0.08396,-0.2024945 z m -0.05433,1.1557002 -0.05927,-0.029633 -0.04939,0.093839 0.04939,0.024694 z"
         style="font-family:'2 Prong Tree';-inkscape-font-specification:'2 Prong Tree'"
         id="path3626" />
      <path
         d="m 43.632686,3.1247493 -0.202495,0.3802946 0.07408,0.2617611 q -0.03457,-0.00494 -0.0889,-0.059267 -0.05433,-0.059267 -0.06914,-0.0889 -0.05927,0.019756 -0.05927,0.098778 0,0.049389 0.03951,0.1926167 -0.03457,0.00988 -0.13335,-0.083961 l -0.666751,1.032228 0.118534,0.4099279 q -0.06914,-0.034572 -0.113595,-0.1135945 -0.04445,-0.079022 -0.08396,-0.1580445 -0.128411,0.069145 -0.128411,0.1728612 0,0.034572 0.01482,0.098778 0.01975,0.069144 0.01482,0.1086556 v 0.00988 q -0.04939,-0.024694 -0.108655,-0.1185333 -0.03457,0.00988 -0.108656,0.098778 -0.07408,0.0889 -0.13335,0.098778 l 0.167922,-0.3704168 q 0.0049,-0.00988 -0.02469,-0.064205 L 41.83493,5.3324331 42.047302,4.8187886 q -0.04939,-0.1926167 -0.09878,-0.3951112 -0.128411,-0.2271889 -0.375355,-0.671689 -0.07408,0.083961 -0.148167,0.1185333 0,-0.04445 0.01976,-0.13335 0.01975,-0.0889 0.01975,-0.13335 0,-0.014817 -0.0642,-0.1481667 l -0.123473,0.1531055 -0.02963,-0.0889 0.0889,-0.1629833 q -0.04939,-0.083961 -0.09384,-0.3062112 0.05927,0.1037167 0.148167,0.1037167 0.01975,0 0.03951,-0.029633 0.02469,-0.029633 0.01976,-0.04445 L 41.341041,2.7592715 q 0.09384,0.04445 0.187678,0.1827389 l 0.637116,-1.2149669 q -0.05433,-0.074083 -0.113594,-0.2617612 0.08396,0.04445 0.217311,0.098778 0,0 0,-0.00494 0,-0.029633 -0.02963,-0.2370667 0.172861,0.0889 0.2667,0.2716389 0.04445,-0.049389 0.148167,-0.13335 l -0.05433,0.2518834 0.637117,1.3532558 q 0.05927,-0.024694 0.207433,-0.083961 l -0.0049,-0.00494 q 0,0.024694 -0.05433,0.1333501 -0.05433,0.1037166 -0.05433,0.1234722 0,0.054328 0.04939,0.1284111 0.05927,-0.069144 0.113595,-0.1382889 0.08396,-0.098778 0.128411,-0.098778 z m -1.160639,-1.4273392 -0.07902,-0.069144 -0.0889,0.1284111 0.05927,0.0889 z M 43.16843,3.1889549 42.521436,1.8159435 q -0.01976,0.069144 -0.07902,0.1580445 0.0247,0.079022 0.07408,0.2173111 0.01975,0.024694 0.04939,0.079022 0.07902,0.1531055 0.158044,0.3210278 0.02469,0.083961 0.08396,0.2370667 0.04445,0.1135945 0.251884,0.4889501 0.0889,-0.059267 0.108655,-0.1284111 z m 0.13335,0.2864556 q -0.0049,-0.00494 -0.04939,-0.093839 -0.02469,0 -0.06914,0.029633 -0.04445,0.024694 -0.04445,0.049389 0,0.04445 0.06421,0.1432279 z M 42.309063,1.9838657 q -0.02469,-0.064205 -0.07902,-0.1234722 l -0.602545,1.2248447 q 0.01482,0.059267 0.07902,0.083961 z m 0.671689,1.4470948 -0.617361,-1.3137447 -0.592667,1.1952113 0.563034,1.0865558 z M 43.138797,3.677905 Q 43.114107,3.60876 43.044957,3.5741883 l -0.646995,0.987778 0.06421,0.1531056 z M 41.627496,3.3519383 41.558352,3.228466 h -0.02469 l 0.01482,0.1135945 z m 0.607484,1.165578 -0.543278,-1.0964336 q -0.03457,0.069145 -0.03457,0.1234723 l 0.528461,1.0964335 q 0.02469,-0.039511 0.04939,-0.1234722 z m 0.103717,0.3753556 q 0,-0.1284111 -0.0049,-0.1135944 -0.08396,0.00988 -0.08396,0.069144 0,0.019756 0.01482,0.04445 0.01976,0.024694 0.01976,0.029633 0.02963,-0.029633 0.05433,-0.029633 z"
         style="font-family:'2 Prong Tree';-inkscape-font-specification:'2 Prong Tree'"
         id="path3628" />
      <path
         d="m 44.141392,2.240688 -0.06914,0.098778 q -0.05433,-0.054328 -0.05433,-0.1037167 0,-0.049389 0.0049,-0.1531056 0.0099,-0.1037166 0.0099,-0.1580444 0,-0.0889 -0.01482,-0.2617612 -0.01482,-0.1778 -0.01482,-0.2617612 0,-0.074083 0.0889,-0.083961 l 0.04939,0.2370667 z M 43.97347,1.8949657 43.849998,2.3394658 q -0.0247,-0.1481667 -0.0247,-0.3852334 0,-0.039511 0.0247,-0.316089 0.01482,-0.2173111 0,-0.2864556 0.01482,-0.00494 0.03457,-0.00988 0.02469,-0.00494 0.03457,-0.00494 0,0 0.0049,0.00988 z"
         style="font-family:'2 Prong Tree';-inkscape-font-specification:'2 Prong Tree'"
         id="path3630" />
      <path
         d="M 46.358951,2.7148215 Q 45.860123,2.285138 45.450195,1.6776546 q -0.05433,0.019755 -0.05433,0.074083 0,0.13335 0.316089,0.4988279 0.365478,0.4198056 0.404989,0.5136446 -0.128411,0.00494 -0.434622,-0.360539 -0.237067,-0.2815167 -0.370417,-0.4988279 l -0.385233,0.671689 0.953206,0.9136947 q 0.09878,-0.083961 0.291394,-0.2420056 l -0.12347,0.3407837 q 0.0049,0.049389 0.05433,0.069144 l 0.227189,-0.2420056 -0.123473,0.2913945 0.138289,0.2370668 q -0.07408,0 -0.162983,-0.0889 -0.02963,0.00988 -0.07408,0.054328 -0.04445,0.039511 -0.04445,0.064206 0,0.054328 0.09384,0.1580445 0.09878,0.098778 0.108655,0.1975556 L 45.988534,4.1569773 45.618118,4.8089108 45.899634,5.159572 45.514401,4.9965886 q 0.138289,0.093839 0.158044,0.2420056 l -0.192616,-0.098778 q -0.05433,0.029633 -0.123473,0.1432278 -0.06421,0.1185334 -0.108655,0.1531056 l 0.06914,-0.3802945 q -0.03951,0 -0.0889,0.083961 -0.04445,0.083961 -0.0889,0.0889 l 0.04939,-0.2568223 q -0.08396,-0.00988 -0.42968,-0.296333 -0.340784,-0.2913945 -0.345723,-0.3654779 l 0.197556,0.029633 q 0.05433,0.069144 0.543278,0.4049889 0.02963,0.04445 0.103717,0.054328 v -0.014817 q 0.0049,-0.083961 -0.123473,-0.2024945 -0.103716,-0.0889 -0.202494,-0.1728612 L 44.541439,4.0483218 q 0.454378,0.1629833 0.795162,0.5334001 l 0.375355,-0.6568724 -0.987778,-0.987778 q -0.01976,0.019756 -0.148166,0.2420056 -0.04939,-0.014817 -0.0889,-0.059267 l 0.153105,-0.2667 q -0.03951,-0.069144 -0.108655,-0.069144 -0.04939,0 -0.113595,0.014817 0.03951,-0.054328 0.03951,-0.098778 0,-0.039511 -0.04445,-0.1234723 -0.05433,-0.1037167 -0.05927,-0.1234722 0.09384,0.029633 0.158044,0.1037167 l 0.05433,-0.083961 -0.202495,-0.2765778 0.266701,0.1481667 0.449439,-0.7210779 -0.04445,-0.069145 q 0.03457,-0.04445 0.02963,-0.1382889 0.06421,0.00988 0.113594,0.064206 0.03457,-0.029633 0.03457,-0.074083 0,-0.029633 -0.0049,-0.0889 0.07408,0.049389 0.212372,0.1481667 0.03457,-0.019756 0.108655,-0.04445 0.0099,0.2469445 0.365478,0.6519335 0.40005,0.4593167 0.464256,0.6420557 z M 45.346479,1.5492434 q -0.03951,0.00494 -0.05927,0.029633 -0.01976,0.024694 -0.02469,0.029633 0.01482,0.014817 0.04445,0.054328 0.03951,-0.059267 0.03951,-0.113594 z m -0.118534,0.2469445 q 0,-0.029633 -0.01482,-0.04445 -0.13335,0.1185334 -0.454378,0.6667502 0.01482,0.049389 0.07408,0.079022 0.113594,-0.1778 0.227189,-0.3556001 0.167922,-0.2667 0.167922,-0.3457223 z m 0.770467,1.9459227 q -0.01976,0.00988 -0.05927,0.04445 -0.03457,0.034572 -0.03457,0.054328 0,0.029633 0.05927,0.059267 z M 45.855184,3.6482717 44.857528,2.7098826 q -0.03457,0.059267 -0.03457,0.0889 0,0.029633 0.953206,0.9630835 0.04445,-0.00494 0.07902,-0.1135944 z M 44.71924,2.6308603 q 0,-0.014817 -0.01482,-0.034572 -0.0099,-0.024695 -0.0099,-0.039511 -0.01975,0.029633 -0.06914,0.083961 0.03951,0.083961 0.07408,0.079022 0.01976,-0.054328 0.01976,-0.0889 z m 1.150761,1.4421559 q 0,-0.039511 -0.01976,-0.064206 l -0.390172,0.6865057 q 0.0049,0.034572 0.03951,0.069145 0.370417,-0.5531557 0.370417,-0.6914446 z m -0.454378,0.8692446 -0.0099,-0.079022 -0.06421,-0.024694 v 0.1185334 z"
         style="font-family:'2 Prong Tree';-inkscape-font-specification:'2 Prong Tree'"
         id="path3632" />
      <path
         d="m 51.806549,1.3319323 q -0.0099,0.04445 -0.04939,0.1037167 -0.03951,0.059267 -0.03951,0.2123722 0,0.2420056 0.0099,0.7260168 0.0099,0.4790724 0.0099,0.721078 0,0.582789 -0.0099,1.4174614 0,0.1975556 0,0.3951112 -0.0049,0.2222501 -0.04445,0.3901723 -0.07408,-0.093839 -0.07408,-0.2420056 V 2.5666548 q 0,-0.024694 -0.01482,-0.069144 -0.01482,-0.04445 -0.01482,-0.074083 0,-0.1086555 0.01482,-0.3309056 0.01975,-0.22225 0.01975,-0.3309056 0,-0.034572 -0.01482,-0.059267 -0.04939,0.024695 -0.108656,0.098778 -0.05433,0.074083 -0.06421,0.1234723 -0.03457,0.3407834 -0.03457,1.5014225 0,0.2815167 0.05927,1.7582448 0.0049,0.059267 -0.02469,0.1432279 -0.03457,0.1037166 -0.08396,0.1086555 l 0.0049,-0.8297335 q 0,-0.2617611 -0.03457,-0.7013224 -0.04445,-0.5037667 -0.04939,-0.7013223 v -0.074083 q -0.0099,-0.2173111 0.01482,-0.538339 0.01976,-0.2667001 0.03951,-0.5334001 l -0.637117,0.7951613 q 0.0247,0.074083 0.06421,0.22225 -0.0099,0.00494 -0.02963,0.00988 -0.01976,0 -0.06421,-0.054328 -0.02963,-0.034572 -0.05927,-0.074083 -0.06914,0.00988 -0.08396,0.1037167 0.02963,0.024694 0.05927,0.059267 0.03457,0.029633 0.03457,0.069145 0,0 -0.0049,0.024694 l -0.138289,-0.083961 q -0.06421,0.029633 -0.261761,0.1679223 l 0.09384,-0.2568223 q -0.0247,-0.00988 -0.04939,-0.00988 -0.03457,0 -0.123472,0.04445 -0.0889,0.04445 -0.118534,0.049389 L 50.09772,2.9370735 49.554442,2.2999567 q 0,0.2370667 -0.0049,0.6667501 -0.0049,0.449439 -0.0049,0.6667502 0,0.3901723 0.0099,0.6963835 0.0049,0.098778 0.0247,0.4000501 0.01482,0.2469445 0.01482,0.4000501 0,0.098778 -0.01976,0.1827389 -0.0889,-0.049389 -0.0889,-0.098778 L 49.436012,4.117468 q 0,-0.024694 0.0049,-0.064206 0.0099,-0.04445 0.0099,-0.064205 0,-0.2864556 -0.0247,-0.854428 -0.01975,-0.5729112 -0.01975,-0.854428 0,-0.2074333 -0.207434,-0.3654778 l 0.0049,0.2420056 q 0.0099,0.04445 0.02469,0.1432278 0.04445,2.3706672 0.04445,2.4151172 0,0.083961 -0.0049,0.2173112 -0.0049,0.1778 -0.0049,0.22225 -0.01976,0.049389 -0.03951,0.093839 -0.01482,0.039511 -0.09878,0.054328 V 3.0309104 q 0.0099,-0.024694 0.0099,-0.3951112 0,-0.3556001 -0.05927,-0.8099779 -0.0049,-0.039511 -0.108656,-0.2765779 0.07408,0 0.09878,0.04445 0.01976,-0.069144 0.01976,-0.1234722 0,-0.064206 -0.02469,-0.1531056 0.158045,0.00988 0.271639,0.1679223 0.03951,0.00494 0.05927,-0.014817 0.02469,-0.019756 0.01482,-0.059267 0.05927,0.00494 0.0642,0.074083 0.0099,0.069144 0.01482,0.1284111 0.07408,0.1728611 0.414867,0.493889 0.251883,0.2321278 0.503766,0.4642556 0.4445,-0.3457223 0.943328,-1.1606391 0.08396,-0.039511 0.261762,-0.093839 -0.01482,0.024694 -0.113595,0.1382889 -0.07902,0.0889 -0.07902,0.1481667 0,0.034572 0.01482,0.069144 0.138289,-0.029633 0.187678,-0.1975556 0.04445,-0.1432278 0.187678,-0.1432278 z m -0.479072,0.4691945 q 0,-0.1037167 -0.0247,-0.1284111 l -0.780344,0.987778 q 0.0049,0.059267 0.05927,0.079022 l 0.572912,-0.6667501 q -0.01482,-0.019756 -0.01482,-0.034572 0,-0.04445 0.09384,-0.1185333 0.09384,-0.079022 0.09384,-0.1185334 z m -1.936045,0.014817 q -0.02963,-0.1728612 -0.232128,-0.3309056 0.0049,0.064205 0.0049,0.1086555 0,0.059267 -0.0099,0.0889 l 0.212372,0.2370667 z m 0.908756,0.8692446 -0.795162,-0.8297335 q 0,0.024694 -0.0099,0.074083 -0.0099,0.04445 -0.0099,0.069144 0,0.074083 0.118533,0.2370667 0.118534,0.1629834 0.192617,0.1778001 l 0.404989,0.3901723 z m 0.1778,0.1629834 q 0,-0.039511 -0.0247,-0.04445 -0.103716,0.059267 -0.13335,0.1185333 l 0.05433,0.049389 q 0.103717,-0.064205 0.103717,-0.1234722 z"
         style="font-family:'2 Prong Tree';-inkscape-font-specification:'2 Prong Tree'"
         id="path3634" />
      <path
         d="m 54.779763,3.3716938 q -0.04445,0.049389 -0.04939,0.1185334 l -0.246944,-0.00988 q -0.03457,-0.014817 -0.207434,-0.00988 h -0.227189 l 0.518584,1.6199559 q 0,0 0,0.1926167 -0.0889,-0.074083 -0.153106,-0.2370667 -0.05433,-0.1382889 -0.103716,-0.2716389 -0.0247,-0.04445 -0.06914,-0.1382889 -0.04445,-0.093839 -0.113594,-0.4247446 -0.0889,-0.4198056 -0.09878,-0.4642556 -0.06914,-0.2568223 -0.103717,-0.2568223 -0.07902,0 -0.113594,0.039511 0.138289,0.4445001 0.271639,0.8840613 0.202494,0.6667502 0.202494,0.8297335 0,0.014817 -0.0099,0.039511 -0.182739,-0.2617611 -0.449439,-1.3285614 -0.02963,-0.13335 -0.113594,-0.3901723 -0.03457,-0.074083 -0.103717,-0.079022 -0.03457,0 -0.06421,-0.00988 -0.02469,0.014817 -0.301273,0.049389 -0.09878,0.00988 -0.424744,0.7803446 -0.375356,0.8840613 -0.459317,1.0075336 l -0.0049,-0.024694 q -0.0099,-0.2815167 0.31115,-0.9630835 0.325967,-0.6865057 0.325967,-0.7210779 0,-0.064206 -0.06421,-0.064206 -0.09878,0 -0.301272,0.4889501 -0.113594,0.3111501 -0.232128,0.6173612 -0.118533,0.3210279 -0.246944,0.6173613 -0.02963,-0.00988 -0.08396,-0.04445 L 52.690624,3.569243 h -0.172862 q -0.04445,0 -0.13335,0.014817 -0.0889,0.014817 -0.13335,0.014817 -0.108655,0 -0.143227,-0.054328 0.02469,-0.064206 0.148166,-0.1135945 0.162984,0.029633 0.1778,0.029633 0.0247,0 0.06421,-0.014817 0.04445,-0.014817 0.06421,-0.014817 0.242006,0 0.237067,-0.1382889 l -0.503767,-0.014817 q -0.04939,-0.024694 -0.13335,-0.069144 0.113595,-0.083961 0.271639,-0.083961 0.06421,0 0.187678,0.00988 0.128411,0.00494 0.192617,0.00494 0.06421,0 0.281517,-0.5877279 0.217311,-0.5877279 0.217311,-0.7457724 0,-0.04445 -0.0247,-0.083961 -0.01976,-0.04445 -0.01976,-0.064206 V 1.4257712 q 0.04445,0.00494 0.08396,0.064205 0.02469,0.049389 0.05433,0.1037167 0.06914,-0.1234722 0.05927,-0.2765778 0.09384,0.04445 0.148167,0.2913945 l 0.13335,-0.1876778 0.01976,0.13335 -0.07902,0.3802945 q 0.237067,1.1902725 0.350662,1.1902725 l 0.696383,-0.00988 q -0.06421,0.074083 -0.167922,0.0889 -0.09878,0.00988 -0.192617,0.019756 l -0.385233,0.04445 q 0.01482,0.1037167 0.0889,0.1037167 z m -1.224845,-1.481667 q 0,-0.04445 -0.05433,-0.098778 l -0.01976,0.2518834 q 0.07408,-0.024694 0.07408,-0.1531056 z m 0.271639,1.2297836 q 0,-0.093839 0,-0.093839 L 53.624063,2.0974602 q -0.05927,0.0889 -0.08396,0.1926167 0.0099,0.079022 0,0.1234723 l 0.167922,0.6914446 q 0.03951,0.00988 0.118533,0.014817 z M 53.554918,3.0901774 53.470958,2.5864106 53.28328,3.0901774 q 0.02963,0 0.09384,0.014817 0.06421,0.00988 0.09878,0.00988 0.05433,0 0.07902,-0.024694 z M 53.401813,2.3690992 q 0,0 0,-0.098778 0,-0.034572 -0.03951,-0.1135945 l -0.380295,0.943328 h 0.187678 z m 0.513644,0.9828391 q -0.04445,-0.1086556 -0.123472,-0.1135945 -0.01482,0.024694 -0.02469,0.1135945 z m -0.256822,0.014817 q -0.01482,-0.049389 -0.06421,-0.098778 -0.04939,-0.049389 -0.09384,-0.049389 H 53.25364 L 53.18943,3.411205 h 0.113595 l 0.09384,-0.04445 q 0.02469,0 0.07408,-0.00494 0.04939,-0.00988 0.07408,-0.00988 0.0049,0 0.113594,0.014817 z M 53.090663,3.2580994 q -0.04939,-0.019756 -0.0889,-0.019756 -0.06914,0 -0.09878,0.064206 -0.0247,0.064205 -0.04445,0.1284111 h 0.138289 q 0.06421,0 0.09384,-0.1728611 z"
         style="font-family:'2 Prong Tree';-inkscape-font-specification:'2 Prong Tree'"
         id="path3636" />
      <path
         d="m 56.696051,1.5492434 q -0.197555,0.1086556 -1.051983,0.1037167 0.01482,0.069144 0.07408,0.083961 0.0049,0 0.113595,0.00494 l 0.834672,0.039511 q -0.370417,0.079022 -0.370417,0.079022 -0.0049,0 -0.671689,-0.00988 0.01976,1.1063114 0.01976,1.1063114 0,0.2864556 -0.01976,0.8643057 -0.01976,0.5778501 -0.01976,0.8643058 0,0.2420056 0.06914,0.4346223 -0.0099,0.024694 -0.04939,0.1926167 -0.07408,0.00494 -0.118533,-0.4247446 0,-0.019756 -0.0049,-0.5185834 -0.0099,-0.9630835 -0.0099,-1.0223502 v -0.404989 q 0,-0.627239 0.02963,-1.0717391 -0.01482,-0.024695 -0.06914,-0.024695 -0.118533,0 -0.118533,0.1481667 V 5.332431 q -0.103717,-0.1481667 -0.113595,-0.1975556 -0.01976,-0.093839 -0.01976,-0.2370667 0,-0.093839 0.0049,-0.2667 0.0099,-0.1778001 0.0099,-0.2420056 0,-0.2469445 0,-0.7309558 0.0049,-0.493889 0.0049,-0.7260168 V 1.9196602 q -0.02963,-0.064206 -0.182739,-0.064206 h -0.908755 q 0.01976,-0.034572 0.09384,-0.054328 0.05433,-0.014817 0.108655,-0.029633 l 0.889,-0.024695 v -0.13335 l -0.454378,-0.00494 q -0.242005,0 -0.7112,0.079022 0.01976,-0.069144 0.08396,-0.1037166 0.06421,-0.034572 0.128412,-0.064206 l 0.953205,-0.049389 q 0.02963,-0.098778 0.06421,-0.1580445 0.01975,0.014817 0.05927,0.1037167 0.03457,0.069144 0.07408,0.069144 0.01975,0 0.05433,-0.00494 0.03951,-0.00494 0.05433,-0.00988 l 0.03457,-0.1086556 q 0.07408,0.04445 0.06421,0.1135945 l 0.8001,0.029633 q 0.0889,0.019756 0.271639,0.04445 z m -1.165578,0.1432278 q -0.01482,-0.098778 -0.113594,-0.093839 h -0.0099 q 0,0.019756 -0.01976,0.069144 -0.01482,0.04445 -0.01482,0.069144 0.05927,-0.00494 0.158044,-0.04445 z"
         style="font-family:'2 Prong Tree';-inkscape-font-specification:'2 Prong Tree'"
         id="path3638" />
      <path
         d="m 58.883977,2.2801991 -0.424745,0.4247446 q 0.0247,0.064206 0.158045,0.1827389 0.118533,0.098778 0.118533,0.1728612 v 0.019756 l -0.390172,-0.2765778 -0.06914,0.064205 0.321028,0.3951112 -0.414866,-0.31115 -0.602545,0.5531557 q 0.380295,0.4543778 0.75565,0.9136946 0.518584,0.6667501 0.528461,0.9779002 Q 58.711116,5.3126776 58.627155,5.1447553 58.493805,4.9027497 58.459232,4.8582997 58.286371,4.6508663 58.182655,4.5076385 58.02461,4.2853885 57.866566,4.0581995 57.634438,3.7421106 57.525782,3.6729661 q -0.0099,0.034572 -0.0099,0.064206 0,0.069144 0.07902,0.1580445 0.07902,0.0889 0.09384,0.1382889 0.493889,0.5778501 0.893939,1.3730114 -0.40005,-0.3901723 -1.027289,-1.3631336 -0.03457,0.00988 -0.03457,0.064205 0,0.049389 0.01976,0.138289 0.02469,0.0889 0.02469,0.1382889 v 0.3358445 q 0,0.014817 0.01482,0.04445 0.01482,0.024694 0.01482,0.04445 v 0.5482168 q 0,0.1037167 -0.0889,0.093839 -0.05927,-0.6766279 -0.05927,-1.4964837 0,-0.083961 -0.167922,-0.1975556 0.04445,0.6865058 0.04445,1.5853837 0,0.024694 -0.07902,0.069145 l -0.08396,-1.5409337 -0.1778,0.039511 0.1778,-0.2667 q -0.02469,-0.00988 -0.04939,-0.00988 h -0.03457 l -0.25187,0.1975574 0.197555,-0.3062112 q -0.06914,-0.054328 -0.04445,-0.13335 l -0.09384,-0.1531056 q 0.06914,-0.00494 0.128411,0.054328 0.05927,0.059267 0.108655,0.1135945 0.05433,-0.019756 0.05433,-0.098778 0,-0.098778 -0.07902,-0.1728612 -0.07408,-0.074083 -0.148167,-0.1382889 0,-0.024694 0.06421,-0.0889 0.04939,0.034572 0.148166,0.093839 L 57.17513,1.978927 q 0,-0.014817 -0.09878,-0.1481667 -0.09878,-0.138289 -0.113594,-0.2024945 0.04939,0.00988 0.202494,0.1580444 0.0099,-0.00988 0.0099,-0.04445 V 1.6183879 q -0.09878,-0.059267 -0.123472,-0.1284112 0.01482,-0.00988 0.03457,-0.00988 0.03457,0 0.07408,0.019756 0.01482,-0.059267 0.07902,-0.1827389 0.03951,0.029633 0.05433,0.1728611 0.01976,0.1234723 0.128412,0.1629834 0.0049,-0.034572 0.01482,-0.069144 0.0049,-0.00988 0.06421,-0.024694 -0.0049,0.2024945 0.276578,0.5087057 0.22225,0.2173111 0.439561,0.4296834 L 58.70127,2.1912982 q -0.01482,0.083961 -0.153106,0.2074334 -0.103716,0.083961 -0.207433,0.1679223 l 0.0247,0.069144 z M 58.088816,2.6111048 57.540599,1.9690491 v 0.2370667 q 0.128411,0.1185333 0.256822,0.2370667 0.187678,0.1580445 0.291395,0.1679223 z M 57.44676,1.929538 q 0,-0.1234723 -0.13335,-0.1876779 l -0.01976,0.1580445 q 0.0247,0.054328 0.13335,0.1580445 0,-0.019756 0.0099,-0.059267 0.0099,-0.04445 0.0099,-0.069144 z m 0.8001,0.8396112 -0.02963,-0.079022 h -0.01482 q -0.07408,-0.00494 -0.07408,0.04445 0.04939,0.049389 0.06914,0.049389 0.01482,0 0.02963,-0.00494 0.01482,-0.00988 0.01975,-0.00988 z M 57.930771,2.7197603 57.53566,2.3493436 v 0.6914446 z m 0.167922,0.1481667 q -0.03457,-0.019756 -0.103716,-0.049389 -0.474134,0.3654779 -0.474134,0.4840113 0,0 0.0049,0.024694 0.123472,-0.039511 0.301273,-0.2024945 0.13335,-0.1284111 0.271638,-0.2568223 z M 57.44676,2.3098325 q 0,-0.069145 -0.148167,-0.2024945 l -0.03457,1.0075335 q 0.02963,0.0889 0.08396,0.1086556 0.07902,-0.04445 0.08396,-0.2024945 z m -0.05433,1.1557002 -0.05927,-0.029633 -0.04939,0.093839 0.04939,0.024694 z"
         style="font-family:'2 Prong Tree';-inkscape-font-specification:'2 Prong Tree'"
         id="path3640" />
      <path
         d="m 60.568137,5.115122 q -0.06914,0.083961 -0.167922,0.083961 -0.02469,0 -0.04939,-0.00494 -0.237066,0.029633 -0.291394,0.029633 -0.06914,0 -0.09384,0.054328 -0.01976,0.054328 -0.03951,0.1086555 -0.01482,-0.039511 -0.0247,-0.079022 -0.01975,-0.059267 -0.03457,-0.059267 -0.09878,0 -0.113594,0.1284112 l -0.06421,0.074083 -0.0099,-0.1679223 -0.543278,0.029633 -0.03457,-0.039511 q 0.03951,-0.059267 0.2667,-0.0889 0.167922,-0.024694 0.296334,-0.019756 l 0.0099,-0.064206 q -0.246944,-0.014817 -0.345722,-0.014817 0.0049,0 -0.212372,0.024695 l -0.123472,-0.054328 q 0.153105,-0.049389 0.474133,-0.049389 0.207433,0 0.207433,-0.1580445 0,0.014817 -0.01482,-1.0272891 0.01482,-0.029633 0.02963,-0.2864556 l 0.09878,-1.3878281 -0.513645,0.3852334 q 0.0247,-0.1284111 0.567973,-0.6074834 l -0.0247,-0.049389 -0.651933,0.5284612 q 0.06421,-0.1531056 0.330905,-0.3802945 0.2667,-0.227189 0.325967,-0.3556001 0.02963,-0.1086556 0.118533,-0.2765779 0.0099,0.014817 0.04939,0.1333501 0.03951,-0.014817 0.06914,-0.0889 0.03951,-0.1086556 0.04445,-0.1185334 0.0099,0.039511 0.04939,0.1037167 h 0.04939 q 0.05927,0 0.143227,-0.029633 -0.0642,0.059267 -0.187677,0.1876779 l 0.0099,0.054328 q 0.01482,-0.04445 0.172861,-0.0889 -0.02469,0.083961 -0.09384,0.1580445 -0.06914,0.069145 -0.08396,0.1037167 -0.01975,0.049389 -0.01975,0.4642557 0,1.3631336 -0.123472,2.6867561 0.08396,-0.019756 0.197555,-0.019756 0.148167,0 0.306211,0.029633 -0.05927,0.1037167 -0.370416,0.059267 -0.01482,0.00988 -0.108656,0.00988 -0.04445,0 -0.05433,0.059267 l 0.543278,-0.019755 z m -0.503766,-3.3782008 -0.05433,-0.034572 -0.05433,0.074083 0.03457,0.049389 z m -0.04445,0.182739 q -0.09878,0.079022 -0.158045,0.5087056 l -0.0049,0.04445 q -0.0049,0.04445 -0.01976,0.5235224 -0.0247,0.9383891 -0.0247,1.254478 0,0.3901723 0.01482,0.6716891 l 0.09878,-0.049389 q 0.03951,-0.9828391 0.09384,-2.9534562 z m -0.1778,3.2201562 -0.0049,-0.064205 h -0.06914 l 0.0049,0.083961 z"
         style="font-family:'2 Prong Tree';-inkscape-font-specification:'2 Prong Tree'"
         id="path3642" />
      <path
         d="m 63.403064,1.3319323 -1.155701,2.0249449 q 0.251884,0.4642556 0.503767,0.9285113 0.345722,0.6667501 0.365478,0.9235724 -0.123472,-0.083961 -0.474133,-0.7951613 -0.227189,-0.4642556 -0.449439,-0.9285113 -0.103717,0.083961 -0.113595,0.2024945 0.217311,0.3951112 0.429683,0.7902224 0.296334,0.5679723 0.340784,0.7852835 -0.09384,-0.00988 -0.424745,-0.6371168 -0.197555,-0.3951112 -0.40005,-0.7852835 -0.22225,0.3852334 -0.4445,0.7754057 -0.276578,0.4593168 -0.528461,0.7210779 0.04939,-0.3457223 0.893939,-1.6298337 -0.02963,-0.1135944 -0.103717,-0.2173111 -0.2667,0.4889501 -0.538339,0.9729613 Q 60.899046,5.1892053 60.760757,5.3274943 60.83978,4.9521386 61.205258,4.3298385 61.496652,3.8458273 61.792985,3.3667549 61.471958,2.645677 61.338608,2.3839158 61.06203,1.8406379 60.775574,1.4603434 q 0.01976,-0.039511 0.08396,-0.039511 0.103717,0 0.508706,0.8099779 0.242006,0.493889 0.479072,0.987778 0.113595,-0.093839 0.113595,-0.1629833 0,-0.079022 -0.370417,-0.7852835 -0.409928,-0.7803447 -0.454378,-0.898878 h 0.09384 l 0.814917,1.570567 0.854428,-1.3779503 q 0.143228,-0.2271889 0.301272,-0.2469445 l -1.091495,1.7533059 0.06914,0.1185334 q 0.301272,-0.5087057 0.607483,-1.0174113 0.503767,-0.8396113 0.592667,-0.8396113 z m -1.29399,1.9804948 q -0.01482,-0.04445 -0.06914,-0.1086555 l -0.113595,0.1679222 0.06914,0.1432278 z"
         style="font-family:'2 Prong Tree';-inkscape-font-specification:'2 Prong Tree'"
         id="path3644" />
      <path
         d="m 64.958815,3.2580994 q -0.06914,0.024694 -0.202494,0.054328 -0.192617,0.024695 -0.632178,0.024695 -0.03951,0 -0.123472,-0.014817 -0.07902,-0.014817 -0.123473,-0.014817 -0.113594,0 -0.232127,0.083961 -0.01976,-0.014817 -0.05927,-0.1086556 0.04939,0 0.13335,-0.034572 0.0889,-0.034572 0.128411,-0.034572 0.474134,-0.024694 0.474134,-0.024694 0,0 0.637116,0.069144 z m -0.03457,0.2123722 v 0.014817 q -0.172861,0.098778 -1.185333,0.098778 -0.03951,0 -0.09878,-0.034572 0.06421,-0.079022 0.192616,-0.0889 0.503767,-0.04445 0.859367,-0.04445 0.232128,0 0.232128,0.054328 z"
         style="font-family:'2 Prong Tree';-inkscape-font-specification:'2 Prong Tree'"
         id="path3646" />
      <path
         d="M 67.280099,2.7148215 Q 66.781271,2.285138 66.371344,1.6776546 q -0.05433,0.019755 -0.05433,0.074083 0,0.13335 0.316089,0.4988279 0.365478,0.4198056 0.404989,0.5136446 -0.128411,0.00494 -0.434623,-0.360539 -0.237066,-0.2815167 -0.370416,-0.4988279 l -0.385234,0.671689 0.953206,0.9136947 q 0.09878,-0.083961 0.291394,-0.2420056 l -0.12347,0.3407837 q 0.0049,0.049389 0.05433,0.069144 l 0.227189,-0.2420056 -0.123472,0.2913945 0.138289,0.2370668 q -0.07408,0 -0.162984,-0.0889 -0.02963,0.00988 -0.07408,0.054328 -0.04445,0.039511 -0.04445,0.064206 0,0.054328 0.09384,0.1580445 0.09878,0.098778 0.108655,0.1975556 L 66.909683,4.1569773 66.539266,4.8089108 66.820783,5.159572 66.435549,4.9965886 q 0.138289,0.093839 0.158045,0.2420056 l -0.192617,-0.098778 q -0.05433,0.029633 -0.123472,0.1432278 -0.06421,0.1185334 -0.108656,0.1531056 l 0.06915,-0.3802945 q -0.03951,0 -0.0889,0.083961 -0.04445,0.083961 -0.0889,0.0889 l 0.04939,-0.2568223 q -0.08397,-0.00988 -0.42969,-0.296333 -0.340783,-0.2913945 -0.345722,-0.3654779 l 0.197555,0.029633 q 0.05433,0.069144 0.543278,0.4049889 0.02963,0.04445 0.103717,0.054328 v -0.014817 q 0.0049,-0.083961 -0.123472,-0.2024945 -0.103717,-0.0889 -0.202495,-0.1728612 L 65.462588,4.0483218 q 0.454378,0.1629833 0.795161,0.5334001 l 0.375356,-0.6568724 -0.987778,-0.987778 q -0.01976,0.019756 -0.148167,0.2420056 -0.04939,-0.014817 -0.0889,-0.059267 l 0.153106,-0.2667 q -0.03951,-0.069144 -0.108656,-0.069144 -0.04939,0 -0.113594,0.014817 0.03951,-0.054328 0.03951,-0.098778 0,-0.039511 -0.04445,-0.1234723 -0.05433,-0.1037167 -0.05927,-0.1234722 0.09384,0.029633 0.158044,0.1037167 l 0.05433,-0.083961 -0.202494,-0.2765778 0.2667,0.1481667 0.449439,-0.7210779 -0.04445,-0.069145 q 0.03457,-0.04445 0.02963,-0.1382889 0.06421,0.00988 0.113595,0.064206 0.03457,-0.029633 0.03457,-0.074083 0,-0.029633 -0.0049,-0.0889 0.07408,0.049389 0.212372,0.1481667 0.03457,-0.019756 0.108656,-0.04445 0.0099,0.2469445 0.365478,0.6519335 0.40005,0.4593167 0.464255,0.6420557 z M 66.267627,1.5492434 q -0.03951,0.00494 -0.05927,0.029633 -0.01976,0.024694 -0.02469,0.029633 0.01482,0.014817 0.04445,0.054328 0.03951,-0.059267 0.03951,-0.113594 z m -0.118534,0.2469445 q 0,-0.029633 -0.01482,-0.04445 -0.13335,0.1185334 -0.454378,0.6667502 0.01482,0.049389 0.07408,0.079022 0.113595,-0.1778 0.227189,-0.3556001 0.167922,-0.2667 0.167922,-0.3457223 z m 0.770467,1.9459227 q -0.01976,0.00988 -0.05927,0.04445 -0.03457,0.034572 -0.03457,0.054328 0,0.029633 0.05927,0.059267 z M 66.776333,3.6482717 65.778677,2.7098826 q -0.03457,0.059267 -0.03457,0.0889 0,0.029633 0.953205,0.9630835 0.04445,-0.00494 0.07902,-0.1135944 z M 65.640388,2.6308603 q 0,-0.014817 -0.01482,-0.034572 -0.0099,-0.024695 -0.0099,-0.039511 -0.01975,0.029633 -0.06914,0.083961 0.03951,0.083961 0.07408,0.079022 0.01976,-0.054328 0.01976,-0.0889 z m 1.150761,1.4421559 q 0,-0.039511 -0.01976,-0.064206 l -0.390173,0.6865057 q 0.0049,0.034572 0.03951,0.069145 0.370417,-0.5531557 0.370417,-0.6914446 z m -0.454378,0.8692446 -0.0099,-0.079022 -0.06421,-0.024694 v 0.1185334 z"
         style="font-family:'2 Prong Tree';-inkscape-font-specification:'2 Prong Tree'"
         id="path3648" />
      <path
         d="m 69.151936,3.4210827 q -0.0049,0.029633 -0.05927,0.1432278 -0.04939,0.1135945 -0.04939,0.1284112 0,0.014817 0.04939,0.1185333 -0.0049,0 -0.128411,0 -0.07902,0 -0.08396,0.069144 l 0.0889,0.1086556 -0.05433,0.054328 -0.113594,-0.074083 q -0.227189,0.227189 -0.429684,0.4840112 -0.187678,0.2370667 -0.370417,0.4790724 -0.237066,0.2913945 -0.439561,0.4049889 0.143228,-0.2963334 0.518584,-0.7358946 0.301272,-0.3407834 0.607483,-0.6865057 -0.04939,-0.054328 -0.108656,-0.054328 -0.02469,0 -0.548216,0.6469946 -0.553156,0.6815668 -0.775406,0.7902224 l 1.185334,-1.4569725 -0.459317,-0.3901723 -0.301272,0.1481667 0.172861,-0.2469445 -0.06915,-0.039511 -0.22225,0.1284112 0.13335,-0.1926167 -0.172861,-0.2074334 q 0.04939,0 0.143228,0.039511 0.09878,0.034572 0.128411,0.069144 l 0.108656,-0.1037167 q -0.06421,-0.059267 -0.162984,-0.1975556 0.103717,0.034572 0.246945,0.1037167 L 68.312324,2.7148215 67.339363,1.3813212 v 0 q 0.07902,-0.00494 0.237067,0.083961 0.202494,0.3407834 0.864306,1.1507614 0.04445,-0.00494 0.09878,-0.069145 L 67.675208,1.3121767 h 0.01976 q 0.138289,-0.014817 0.508706,0.4840112 0.227189,0.3259668 0.454378,0.6519335 L 68.95438,2.285138 q 0.0049,0.019756 -0.0889,0.1432278 -0.0889,0.1234723 -0.118533,0.1481667 l 0.01975,0.024695 0.375356,-0.227189 -0.08396,0.1975556 q -0.05927,0.049389 -0.182739,0.1432279 0.06914,0.083961 0.09878,0.1679222 -0.01482,0.019756 -0.04939,0.019756 -0.02469,0 -0.07902,-0.049389 -0.05433,-0.054328 -0.07408,-0.054328 -0.04939,0 -0.113594,0.069144 l 0.02963,0.1185334 Q 68.62347,2.9667046 68.579024,2.9370716 L 68.366652,3.139566 q 0.118534,0.1234722 0.365478,0.3556001 0.113595,-0.093839 0.187678,-0.1185334 0.01976,0.014817 0.01976,0.034572 0,0.029633 -0.02963,0.074083 -0.02963,0.039511 -0.02963,0.064206 0,0.049389 0.06421,0.083961 z M 68.638291,2.6703714 q -0.07902,0.00494 -0.123472,0.064206 0.0099,0 0.02963,0.019756 0.01976,0.014817 0.03951,0.014817 0.05433,0 0.05433,-0.098778 z m -0.143228,0.182739 q -0.04445,-0.054328 -0.07408,-0.054328 -0.01482,0 -0.03951,0.014817 -0.01976,0.014817 -0.03457,0.014817 L 68.15428,3.0160937 q 0.04445,0.059267 0.07408,0.054328 z m 0.340784,0.8593668 q -0.03457,-0.00494 -0.03457,-0.00494 h -0.0099 q -0.07902,0 -0.07902,0.04445 0,0.04445 0.05433,0.064205 0.03951,-0.039511 0.06915,-0.1037167 z M 68.623474,3.5643105 68.213547,3.2383438 q -0.03457,0.039511 -0.108656,0.1135945 l 0.409928,0.31115 q 0.04445,-0.029633 0.108655,-0.098778 z m -0.5334,-0.4148667 q -0.02963,-0.00988 -0.07408,-0.049389 -0.06421,0.059267 -0.07902,0.1135944 0.02963,0.019756 0.05927,0.019756 0.07408,0 0.09384,-0.083961 z"
         style="font-family:'2 Prong Tree';-inkscape-font-specification:'2 Prong Tree'"
         id="path3650" />
      <path
         d="m 72.307886,2.7889048 q 0,0.034572 -0.06421,0.1580445 -0.05927,0.1234722 -0.06421,0.1778 l 0.103717,0.227189 -0.172861,-0.0889 q -0.03951,0.014817 -0.08396,0.098778 l 0.06914,0.1975556 q -0.0889,0 -0.138289,-0.069144 L 71.66088,3.9890558 72.144891,4.8829949 71.591735,4.1224058 q -0.04939,0.019756 -0.04939,0.064206 0,0.098778 0.237067,0.4543778 0.271639,0.4000501 0.306211,0.4988279 l -0.642056,-0.7260168 -0.296333,0.4840112 0.1778,0.3901723 q -0.03951,0 -0.128411,-0.1086555 -0.05927,-0.074083 -0.118533,-0.1481667 -0.04445,0.029633 -0.04445,0.074083 0,0.039511 0.03951,0.1135945 0.03951,0.069144 0.03951,0.1037167 0,0.019756 -0.01976,0.034572 -0.07902,-0.049389 -0.13335,-0.049389 -0.0889,0 -0.172861,0.1481667 -0.01976,-0.034572 -0.04939,-0.098778 l 0.06421,-0.1580445 q -0.02469,-0.079022 -0.06914,-0.1037167 -0.05433,0.04445 -0.138289,0.1580445 -0.08396,0.1135945 -0.138289,0.1580445 l 0.1778,-0.4543779 -0.884061,-1.3335003 q -0.0099,0.00494 -0.167922,0.024694 l 0.07902,-0.1679223 q -0.02963,-0.069145 -0.09384,-0.069145 -0.06914,0 -0.167922,0.1333501 0.0099,-0.034572 0.06914,-0.1382889 0.05927,-0.1037167 0.05927,-0.1234723 0,-0.04445 -0.128411,-0.1876778 0.118533,0.034572 0.162983,0.034572 0.08396,0 0.08396,-0.04445 0,-0.054328 -0.04445,-0.1926167 0.09878,0.029633 0.133351,0.064206 L 70.55458,1.7813713 70.485436,1.6529601 q 0.02963,-0.098778 0.06914,-0.1086556 0.0099,0.069144 0.113595,0.098778 0.02963,-0.074083 0.05433,-0.083961 l -0.06421,-0.2370667 q 0.04445,0.029633 0.138289,0.1382889 0.13335,0.1629834 0.13335,0.1629834 0.03457,-0.014817 0.09384,-0.0889 0.04445,-0.054328 0.123472,-0.059267 -0.03457,0.069144 -0.103717,0.2469445 l 0.898878,1.1013724 q 0.04445,-0.049389 0.138289,-0.1086555 0.01976,0.034572 0.01976,0.093839 0,0.034572 -0.01976,0.0889 -0.02963,0.079022 -0.03457,0.093839 z M 70.855853,1.6974101 q -0.0889,0.00988 -0.0889,0.079022 0,0.024694 0.02469,0.04445 0.05927,-0.029633 0.06421,-0.123472 z M 71.873264,2.9370715 70.944753,1.835699 q -0.03951,0.074083 -0.03951,0.093839 v 0.00988 l 0.874184,1.1853336 q 0.02469,-0.064205 0.09384,-0.1876778 z m 0.123472,0.2271889 -0.03457,-0.079022 q -0.103717,0.039511 -0.103717,0.1382889 0,0.034572 0.01976,0.049389 0.09878,-0.074083 0.118533,-0.1086556 z m -0.187678,0.2370668 q -0.113594,0 -0.281516,0.3556 l 0.03457,0.1086556 q 0.07902,-0.083961 0.153105,-0.22225 0.09878,-0.1629834 0.09384,-0.2420056 z M 70.722503,1.929538 70.638541,1.8999046 69.813747,3.0407882 q 0.04939,0.0889 0.09878,0.1284111 Q 70.42123,2.512327 70.722503,1.929538 Z m 0.953205,1.3137447 Q 71.473214,2.9370715 71.270719,2.6308603 71.028714,2.2703214 70.806464,2.062888 l -0.809978,1.2347225 0.93345,1.2347225 0.261761,-0.4543779 -0.2667,-0.5284612 q 0.0889,0.034572 0.207433,0.1629833 0.118534,0.1284112 0.192617,0.1531056 l 0.04939,-0.074083 -0.227189,-0.404989 0.31115,0.2667001 z m -0.167922,0.7507113 -0.06421,-0.079022 -0.07408,0.024694 0.04445,0.1086556 z m -0.162983,0.3210278 q -0.02963,-0.059267 -0.06914,-0.098778 -0.118533,0.1827389 -0.153105,0.2469445 -0.0889,0.1629834 -0.09878,0.2667001 0.01482,0.019756 0.02963,0.019756 0.04445,0 0.291395,-0.4346226 z M 69.813747,3.3025494 q -0.0099,-0.04445 -0.09384,-0.083961 -0.0099,0.029633 -0.01976,0.064206 0,0.04445 0.01482,0.069145 0.06421,-0.019756 0.09878,-0.04939 z m 1.017411,1.3581947 -0.93345,-1.2791725 -0.06914,0.083961 q 0.464256,0.8643058 0.903817,1.3384392 0.06421,-0.064206 0.09878,-0.1432278 z m 0.148167,0.2222501 -0.01482,-0.04445 q -0.148167,0.019756 -0.148167,0.1185334 0,0.049389 0.08396,0.0889 z"
         style="font-family:'2 Prong Tree';-inkscape-font-specification:'2 Prong Tree'"
         id="path3652" />
      <path
         d="m 75.483595,4.8484219 q -0.103717,0.014817 -0.251883,0.014817 -0.138289,0 -0.22225,-0.014817 -0.0049,0.00988 -0.05927,0.1531056 0.01976,0.029633 0.05927,0.029633 0.02963,0 0.148166,-0.039511 l 0.321028,0.024694 q -0.187678,0.064206 -0.217311,0.074083 -0.05927,0.00988 -0.22225,0.00988 -0.06915,0 -0.0889,0.0889 -0.01482,0.0889 -0.03457,0.1778001 -0.02469,-0.019756 -0.07902,-0.1481667 -0.03457,-0.083961 -0.128411,-0.083961 -0.07902,0 -0.07902,0.1234723 0,0.074083 0.01976,0.1481667 -0.02963,0.029633 -0.05927,0.029633 -0.02963,0 -0.04939,-0.024694 Q 74.530374,5.1200624 74.42668,5.134879 L 73.7698,5.208961 q -0.08396,-0.024694 -0.158044,-0.024694 -0.429684,0 -0.429684,0.2617612 -0.03951,-0.039511 -0.06914,-0.1432278 -0.01482,-0.074083 -0.08396,-0.074083 -0.02469,0 -0.09384,0.04445 v 0.2518834 q -0.05433,-0.019756 -0.07408,-0.1580445 -0.01976,-0.1382889 -0.103716,-0.1432278 0,0 -0.365478,-0.00988 -0.01976,-0.024694 -0.01976,-0.059267 l 0.424745,-0.049389 0.01482,-0.083961 q 0,0 -0.192617,-0.024694 -0.192617,-0.024694 -0.251884,-0.0889 l 0.291395,-0.098778 0.172861,0.014817 V 4.171794 q 0,-0.059267 -0.01482,-0.1827389 -0.0099,-0.1284112 -0.0099,-0.1926167 V 2.062888 q 0,-0.5926668 0.103716,-0.6963835 0.06915,0.1086556 0.06915,0.2420056 -0.04445,0.1135945 -0.04445,0.1580445 0,0.2864556 0.01482,0.8692446 0.01482,0.5778501 0.01482,0.8643058 0,0.8346724 -0.02963,1.2939891 0.02469,0.00494 0.05433,0.00494 0.01975,0 0.05433,0 0.03951,-0.00494 0.05927,-0.00494 l 0.01482,-0.4346223 q 0,-0.04445 -0.01976,-0.13335 -0.01482,-0.0889 -0.01482,-0.1284111 0,-1.6989782 0.0889,-2.7756562 0.06914,0.1432278 0.06914,0.1629834 0,0.2024944 -0.01976,0.6025445 -0.01482,0.4000501 -0.01482,0.5976057 0,0.024694 0.01482,2.0348227 0,0.0889 0.128412,0.0889 0.108655,0 0.316089,-0.00988 0.212372,-0.00988 0.316088,-0.00988 0.06914,0 0.207434,-0.014817 0.143228,-0.014817 0.217311,-0.014817 0.108656,0 0.118533,-0.3062112 0.0049,-0.2518834 0.01976,-0.7507112 0,0 0.13335,-2.336095 l 0.118533,0.2913945 q -0.0889,1.165578 -0.0889,1.7631837 0,0.093839 -0.01976,0.2469445 -0.01976,0.182739 -0.02469,0.2469445 -0.01976,0.4099279 -0.03457,0.7852835 0.05433,0.024694 0.113595,0.024694 0.103716,0 0.103716,-0.1086556 0,-0.034572 -0.01482,-0.1037167 -0.01482,-0.069144 -0.01482,-0.1037167 l 0.0049,-0.00988 q 0.02963,-0.3012722 0.03951,-0.805039 0.01482,-0.6025446 0.02963,-0.8050391 0.02469,-0.1580445 0.05927,-0.4790723 0,0 0,-0.7951613 l 0.07902,-0.1926167 q 0.01976,-0.00494 0.02963,0.00988 0.01482,0.014817 0.01482,0.034572 l -0.06421,1.886656 q -0.0049,0.083961 -0.03457,0.2716389 -0.02469,0.1876778 -0.02469,0.3012723 0,0.6074835 0.01482,0.9087558 0.123472,-0.024694 0.237066,-0.024694 0.153106,0 0.281517,0.1382889 z M 74.826723,4.9867108 74.7477,4.8385441 q -0.03951,0.019756 -0.113594,0.014817 -0.0049,0.019756 -0.0049,0.059267 0,0.014817 0,0.054328 0.0049,0.039511 0.0049,0.054328 h 0.138289 q 0.03951,0 0.05433,-0.034572 z m -0.316089,-0.019755 q 0,-0.04445 -0.03457,-0.1135945 h -0.143227 q -0.01976,0 -0.05433,0.00988 -0.03457,0.00988 -0.04939,0.00988 -0.08396,0.014817 -0.503767,0.024694 -0.31115,0.00494 -0.503767,0.083961 l 0.01976,0.1135944 q 0.07902,0 0.197556,0 0.13335,0.00494 0.197555,0.00494 0.13335,0 0.207434,-0.00494 0.03457,-0.00494 0.108655,-0.029633 0.07902,-0.024694 0.123472,-0.024694 0.05927,0 0.1778,0.00988 0.123473,0.00494 0.187678,0.00494 0.06914,0 0.06914,-0.0889 z m -1.402645,0.069144 q 0,-0.083961 -0.07408,-0.1037166 -0.09878,0.024694 -0.09878,0.098778 0,0.069144 0,0.069144 0.0642,-0.00494 0.172861,-0.029633 0,-0.034572 0,-0.034572 z"
         style="font-family:'2 Prong Tree';-inkscape-font-specification:'2 Prong Tree'"
         id="path3654" />
      <path
         d="m 77.533234,3.4210827 q -0.0049,0.029633 -0.05927,0.1432278 -0.04939,0.1135945 -0.04939,0.1284112 0,0.014817 0.04939,0.1185333 -0.0049,0 -0.128411,0 -0.07902,0 -0.08396,0.069144 l 0.0889,0.1086556 -0.05433,0.054328 -0.113594,-0.074083 q -0.227189,0.227189 -0.429684,0.4840112 -0.187678,0.2370667 -0.370417,0.4790724 -0.237066,0.2913945 -0.439561,0.4049889 0.143228,-0.2963334 0.518584,-0.7358946 0.301272,-0.3407834 0.607483,-0.6865057 -0.04939,-0.054328 -0.108655,-0.054328 -0.0247,0 -0.548217,0.6469946 Q 75.85895,5.1892053 75.6367,5.2978609 L 76.822034,3.8408884 76.362717,3.4507161 76.061445,3.5988828 76.234306,3.3519383 76.165161,3.3124271 75.942911,3.4408383 76.076261,3.2482216 75.9034,3.0407882 q 0.04939,0 0.143228,0.039511 0.09878,0.034572 0.128411,0.069144 l 0.108656,-0.1037167 q -0.06421,-0.059267 -0.162984,-0.1975556 0.103717,0.034572 0.246945,0.1037167 L 76.693622,2.7148215 75.720661,1.3813212 v 0 q 0.07902,-0.00494 0.237067,0.083961 0.202494,0.3407834 0.864306,1.1507614 0.04445,-0.00494 0.09878,-0.069145 L 76.056506,1.3121767 h 0.01976 q 0.138289,-0.014817 0.508706,0.4840112 0.227189,0.3259668 0.454378,0.6519335 L 77.335678,2.285138 q 0.0049,0.019756 -0.0889,0.1432278 -0.0889,0.1234723 -0.118533,0.1481667 l 0.01975,0.024695 0.375356,-0.227189 -0.08396,0.1975556 q -0.05927,0.049389 -0.182739,0.1432279 0.06914,0.083961 0.09878,0.1679222 -0.01482,0.019756 -0.04939,0.019756 -0.02469,0 -0.07902,-0.049389 -0.05433,-0.054328 -0.07408,-0.054328 -0.04939,0 -0.113594,0.069144 l 0.02963,0.1185334 q -0.06421,-0.019756 -0.108655,-0.049389 L 76.74795,3.139566 q 0.118534,0.1234722 0.365478,0.3556001 0.113595,-0.093839 0.187678,-0.1185334 0.01976,0.014817 0.01976,0.034572 0,0.029633 -0.02963,0.074083 -0.02963,0.039511 -0.02963,0.064206 0,0.049389 0.06421,0.083961 z M 77.019589,2.6703714 q -0.07902,0.00494 -0.123472,0.064206 0.0099,0 0.02963,0.019756 0.01976,0.014817 0.03951,0.014817 0.05433,0 0.05433,-0.098778 z m -0.143228,0.182739 q -0.04445,-0.054328 -0.07408,-0.054328 -0.01482,0 -0.03951,0.014817 -0.01976,0.014817 -0.03457,0.014817 l -0.192617,0.1876778 q 0.04445,0.059267 0.07408,0.054328 z m 0.340784,0.8593668 q -0.03457,-0.00494 -0.03457,-0.00494 h -0.0099 q -0.07902,0 -0.07902,0.04445 0,0.04445 0.05433,0.064205 0.03951,-0.039511 0.06915,-0.1037167 z M 77.004773,3.5643105 76.594845,3.2383438 q -0.03457,0.039511 -0.108656,0.1135945 l 0.409928,0.31115 q 0.04445,-0.029633 0.108656,-0.098778 z M 76.471372,3.1494438 q -0.02963,-0.00988 -0.07408,-0.049389 -0.06421,0.059267 -0.07902,0.1135944 0.02963,0.019756 0.05927,0.019756 0.07408,0 0.09384,-0.083961 z"
         style="font-family:'2 Prong Tree';-inkscape-font-specification:'2 Prong Tree'"
         id="path3656" />
      <path
         d="m 80.274318,5.2632887 -0.291395,-0.3556001 -0.0099,0.2222501 0.143228,0.3605389 q -0.148167,-0.1432278 -0.345722,-0.4000501 0,0.093839 -0.02469,0.2173112 h -0.01482 q -0.03457,0 -0.07408,-0.039511 V 4.9175664 L 78.422217,2.8333548 78.338257,5.2731665 H 78.23454 q 0.0099,-0.029633 0.0099,-0.069145 0,-0.1086556 -0.0099,-0.3309056 -0.0049,-0.2222501 -0.0049,-0.3358445 0,0 0.03457,-0.6272391 l 0.07408,-1.2594169 q 0,-0.059267 -0.06915,-0.1827389 -0.06421,-0.1284112 -0.118533,-0.1481667 -0.01482,0.083961 -0.01482,0.5037667 0,0.1481667 -0.06421,0.4148668 -0.05927,0.2617612 -0.05927,0.404989 0,0.069144 0.0049,0.2024945 0.0099,0.13335 0.0099,0.2024945 0,0.2469445 -0.0099,0.6519334 -0.0099,0.5037668 -0.0099,0.6519335 -0.08396,0.014817 -0.0889,-0.1580445 -0.01976,-0.4642556 -0.01976,-1.4273392 0,-0.049389 0.05927,-0.7013224 l 0.0889,-0.9482668 -0.2667,-0.5877279 0.06421,0.00494 0.237066,0.3160889 q 0,-0.093839 -0.05433,-0.22225 -0.04939,-0.1086556 -0.09384,-0.2173112 0.07408,0.04445 0.212372,0.1481667 0.02469,-0.034572 0.02469,-0.079022 0,-0.014817 -0.0049,-0.04445 -0.0049,-0.029633 -0.0049,-0.04445 0,-0.039511 0.03457,-0.074083 0.04939,0.059267 0.07408,0.2667001 0.0247,0.2074333 0.03951,0.22225 0.03951,-0.079022 0.05927,-0.2370667 0.01976,-0.1580445 0.03951,-0.227189 0.0247,0.014817 0.02963,0.1185334 0,0.069144 -0.0049,0.1975556 -0.0049,0.1432278 -0.0049,0.1432278 0,0.014817 0.02963,0.2222501 l 1.126067,1.9706171 q 0.03951,-0.3111501 0.103717,-0.9334502 0.02469,-0.2963334 0.02469,-0.8001002 0,-0.093839 -0.0049,-0.2765779 -0.0049,-0.1876778 -0.0049,-0.2765778 0,0 0.0889,-0.1679223 0.01482,0.1778001 0.01482,0.5037668 0,0.1481667 -0.01482,0.8741835 0,0.3012723 -0.0049,0.6025446 -0.0099,0.3457223 -0.03951,0.5976057 -0.01482,0.019756 -0.01482,0.049389 0,0.098778 0.172861,0.3210279 0.03457,-0.2370668 0.06914,-0.4741335 0.03951,-0.2864556 0.03951,-0.4741334 0,0.059267 -0.01976,-0.316089 -0.0099,-0.2815167 -0.0099,-0.7062612 0,-0.5926668 0.02963,-0.9383891 0.05433,-0.019756 0.138289,-0.098778 -0.03951,0.5630334 -0.03951,0.7902224 0,0.1432278 0.01482,0.4395612 0.01976,0.2913945 0.01976,0.4395612 0,0.760589 -0.118533,1.4470947 z M 78.333334,2.2900769 v -0.1778 q 0,-0.039511 -0.05433,-0.093839 -0.04939,-0.059267 -0.09384,-0.079022 v 0.1135945 q 0,0.059267 0.148167,0.2370667 z m 1.274233,2.3015227 V 4.2952663 L 78.432112,2.3048936 q 0.0099,0.014817 0.0099,0.039511 0,0.024694 -0.0099,0.064206 -0.0049,0.039511 -0.0049,0.064205 0,0.1333501 0.518583,1.0322281 0.464256,0.805039 0.661811,1.0865557 z m 0.276578,0.1135945 q 0,-0.039511 -0.118533,-0.1876778 v 0.1679223 q 0,0.1926167 0.09384,0.3309056 z"
         style="font-family:'2 Prong Tree';-inkscape-font-specification:'2 Prong Tree'"
         id="path3658" />
      <path
         d="M 82.872171,2.6061659 82.091826,1.6727157 q -0.04445,0.029633 -0.09384,0.1185333 0.197556,0.2222501 0.390173,0.4445001 0.217311,0.2765779 0.276578,0.5136446 l -0.755651,-0.854428 -0.9779,1.4915448 1.027289,1.4421559 q 0.370417,-0.6618113 0.57785,-0.7754058 -0.05433,0.1481667 -0.09878,0.2469445 -0.0889,0.1926168 -0.123473,0.2074334 L 82.086887,4.887933 Q 82.353588,4.5669052 82.43261,4.4829441 82.635104,4.260694 82.827721,4.127344 l -0.676628,0.9680224 0.118533,0.2568223 q -0.03951,-0.00988 -0.217311,-0.1086556 l -0.06914,0.024695 0.08396,0.1778 -0.148167,-0.079022 -0.0889,0.1234722 -0.0099,-0.1679222 -0.1778,0.1037167 0.07408,-0.2222501 Q 81.513976,4.8533608 81.089232,4.1619162 80.960821,3.9643606 80.708937,3.6581494 l -0.202494,0.1333501 0.128411,-0.2518834 q -0.05433,0.00494 -0.128411,0.064206 -0.06915,0.059267 -0.08396,0.059267 0.04939,-0.074083 0.128411,-0.2271889 L 80.422482,3.1494438 80.644732,3.2778549 80.486687,3.006216 80.758326,3.1494438 81.731287,1.6480212 Q 81.652265,1.5344268 81.568304,1.4949156 l 0.03951,-0.1086555 q 0.113595,0.083961 0.187678,0.1778 0.05927,-0.014817 0.05927,-0.1382889 0,-0.064206 -0.0099,-0.1086556 l 0.212372,0.1827389 q 0.03457,-0.04445 0.118533,-0.1284111 l -0.04445,0.1975556 q 0.212373,0.2370667 0.419806,0.4790723 0.207433,0.2420056 0.321028,0.5580946 z m -0.874184,-0.9532058 -0.01975,-0.098778 -0.09384,0.098778 q 0.0099,0.024695 0.03951,0.069144 z m -0.167922,0.13335 q -0.207433,0.182739 -0.538339,0.6865057 -0.237067,0.3852335 -0.474133,0.7704669 l 0.02469,0.049389 0.05433,-0.034572 q 0.113594,-0.2123723 0.484011,-0.721078 0.325967,-0.449439 0.449439,-0.7507113 z m -1.076678,1.6446504 v -0.059267 l -0.07408,-0.00494 v 0.079022 z m 1.11125,1.5409337 Q 81.835004,4.8582997 81.395443,4.2359996 80.990454,3.6581494 80.837348,3.4803494 q 0.05433,0.2518834 0.404989,0.7704668 0.261761,0.3753557 0.523523,0.7507113 0,0.064206 0.02963,0.064206 0.02963,0 0.06914,-0.093839 z m 0.138289,0.1728611 -0.05433,-0.083961 -0.09384,0.083961 0.06421,0.054328 z"
         style="font-family:'2 Prong Tree';-inkscape-font-specification:'2 Prong Tree'"
         id="path3660" />
      <path
         d="m 84.462494,3.4210827 q -0.0049,0.029633 -0.05927,0.1432278 -0.04939,0.1135945 -0.04939,0.1284112 0,0.014817 0.04939,0.1185333 -0.0049,0 -0.128411,0 -0.07902,0 -0.08396,0.069144 l 0.0889,0.1086556 -0.05433,0.054328 -0.113594,-0.074083 q -0.227189,0.227189 -0.429684,0.4840112 -0.187677,0.2370667 -0.370416,0.4790724 -0.237067,0.2913945 -0.439562,0.4049889 0.143228,-0.2963334 0.518584,-0.7358946 0.301272,-0.3407834 0.607483,-0.6865057 -0.04939,-0.054328 -0.108655,-0.054328 -0.0247,0 -0.548217,0.6469946 Q 82.78821,5.1892053 82.56596,5.2978609 L 83.751294,3.8408884 83.291977,3.4507161 82.990705,3.5988828 83.163566,3.3519383 83.094422,3.3124271 82.872171,3.4408383 83.005521,3.2482216 82.83266,3.0407882 q 0.04939,0 0.143228,0.039511 0.09878,0.034572 0.128411,0.069144 l 0.108656,-0.1037167 q -0.06421,-0.059267 -0.162983,-0.1975556 0.103716,0.034572 0.246944,0.1037167 L 83.622883,2.7148215 82.649921,1.3813212 v 0 q 0.07902,-0.00494 0.237067,0.083961 0.202495,0.3407834 0.864306,1.1507614 0.04445,-0.00494 0.09878,-0.069145 L 82.985766,1.3121767 h 0.01976 q 0.138289,-0.014817 0.508706,0.4840112 0.227189,0.3259668 0.454378,0.6519335 L 84.264938,2.285138 q 0.0049,0.019756 -0.0889,0.1432278 -0.0889,0.1234723 -0.118533,0.1481667 l 0.01976,0.024695 0.375355,-0.227189 -0.08396,0.1975556 q -0.05927,0.049389 -0.182739,0.1432279 0.06914,0.083961 0.09878,0.1679222 -0.01482,0.019756 -0.04939,0.019756 -0.02469,0 -0.07902,-0.049389 -0.05433,-0.054328 -0.07408,-0.054328 -0.04939,0 -0.113595,0.069144 l 0.02963,0.1185334 q -0.06421,-0.019756 -0.108655,-0.049389 l -0.21238,0.2024944 q 0.118533,0.1234722 0.365477,0.3556001 0.113595,-0.093839 0.187678,-0.1185334 0.01976,0.014817 0.01976,0.034572 0,0.029633 -0.02963,0.074083 -0.02963,0.039511 -0.02963,0.064206 0,0.049389 0.06421,0.083961 z M 83.948849,2.6703714 q -0.07902,0.00494 -0.123472,0.064206 0.0099,0 0.02963,0.019756 0.01975,0.014817 0.03951,0.014817 0.05433,0 0.05433,-0.098778 z m -0.143227,0.182739 q -0.04445,-0.054328 -0.07408,-0.054328 -0.01482,0 -0.03951,0.014817 -0.01975,0.014817 -0.03457,0.014817 l -0.192617,0.1876778 q 0.04445,0.059267 0.07408,0.054328 z m 0.340783,0.8593668 q -0.03457,-0.00494 -0.03457,-0.00494 h -0.0099 q -0.07902,0 -0.07902,0.04445 0,0.04445 0.05433,0.064205 0.03951,-0.039511 0.06914,-0.1037167 z M 83.934033,3.5643105 83.524105,3.2383438 q -0.03457,0.039511 -0.108656,0.1135945 l 0.409928,0.31115 q 0.04445,-0.029633 0.108656,-0.098778 z m -0.5334,-0.4148667 q -0.02963,-0.00988 -0.07408,-0.049389 -0.06421,0.059267 -0.07902,0.1135944 0.02963,0.019756 0.05927,0.019756 0.07408,0 0.09384,-0.083961 z"
         style="font-family:'2 Prong Tree';-inkscape-font-specification:'2 Prong Tree'"
         id="path3662" />
      <path
         d="M 86.773894,2.2801991 86.34915,2.7049437 q 0.02469,0.064206 0.158044,0.1827389 0.118534,0.098778 0.118534,0.1728612 v 0.019756 l -0.390173,-0.2765778 -0.06914,0.064205 0.321028,0.3951112 -0.414867,-0.31115 -0.602545,0.5531557 q 0.380295,0.4543778 0.755651,0.9136946 0.518583,0.6667501 0.528461,0.9779002 Q 86.601033,5.3126776 86.517072,5.1447553 86.383722,4.9027497 86.34915,4.8582997 86.176289,4.6508663 86.072572,4.5076385 85.914527,4.2853885 85.756483,4.0581995 85.524355,3.7421106 85.4157,3.6729661 q -0.0099,0.034572 -0.0099,0.064206 0,0.069144 0.07902,0.1580445 0.07902,0.0889 0.09384,0.1382889 0.493889,0.5778501 0.893939,1.3730114 -0.40005,-0.3901723 -1.027289,-1.3631336 -0.03457,0.00988 -0.03457,0.064205 0,0.049389 0.01976,0.138289 0.0247,0.0889 0.0247,0.1382889 v 0.3358445 q 0,0.014817 0.01482,0.04445 0.01482,0.024694 0.01482,0.04445 v 0.5482168 q 0,0.1037167 -0.0889,0.093839 -0.05927,-0.6766279 -0.05927,-1.4964837 0,-0.083961 -0.167922,-0.1975556 0.04445,0.6865058 0.04445,1.5853837 0,0.024694 -0.07902,0.069145 l -0.08396,-1.5409337 -0.1778,0.039511 0.1778,-0.2667 q -0.0247,-0.00988 -0.04939,-0.00988 h -0.03457 L 84.714374,3.8310088 84.91193,3.5247976 q -0.06915,-0.054328 -0.04445,-0.13335 L 84.77364,3.238342 q 0.06914,-0.00494 0.128411,0.054328 0.05927,0.059267 0.108656,0.1135945 0.05433,-0.019756 0.05433,-0.098778 0,-0.098778 -0.07902,-0.1728612 -0.07408,-0.074083 -0.148167,-0.1382889 0,-0.024694 0.06421,-0.0889 0.04939,0.034572 0.148167,0.093839 l 0.01482,-1.0223502 q 0,-0.014817 -0.09878,-0.1481667 -0.09878,-0.138289 -0.113595,-0.2024945 0.04939,0.00988 0.202495,0.1580444 0.0099,-0.00988 0.0099,-0.04445 V 1.6183879 q -0.09878,-0.059267 -0.123472,-0.1284112 0.01482,-0.00988 0.03457,-0.00988 0.03457,0 0.07408,0.019756 0.01482,-0.059267 0.07902,-0.1827389 0.03951,0.029633 0.05433,0.1728611 0.01976,0.1234723 0.128411,0.1629834 0.0049,-0.034572 0.01482,-0.069144 0.0049,-0.00988 0.06421,-0.024694 -0.0049,0.2024945 0.276578,0.5087057 0.22225,0.2173111 0.439561,0.4296834 l 0.484011,-0.3062112 q -0.01482,0.083961 -0.153105,0.2074334 -0.103717,0.083961 -0.207434,0.1679223 l 0.0247,0.069144 z M 85.978733,2.6111048 85.430516,1.9690491 v 0.2370667 q 0.128411,0.1185333 0.256823,0.2370667 0.187677,0.1580445 0.291394,0.1679223 z M 85.336677,1.929538 q 0,-0.1234723 -0.13335,-0.1876779 l -0.01976,0.1580445 q 0.02469,0.054328 0.13335,0.1580445 0,-0.019756 0.0099,-0.059267 0.0099,-0.04445 0.0099,-0.069144 z m 0.800101,0.8396112 -0.02963,-0.079022 h -0.01482 q -0.07408,-0.00494 -0.07408,0.04445 0.04939,0.049389 0.06915,0.049389 0.01482,0 0.02963,-0.00494 0.01482,-0.00988 0.01976,-0.00988 z M 85.820689,2.7197603 85.425577,2.3493436 v 0.6914446 z m 0.167922,0.1481667 q -0.03457,-0.019756 -0.103717,-0.049389 -0.474133,0.3654779 -0.474133,0.4840113 0,0 0.0049,0.024694 0.123472,-0.039511 0.301272,-0.2024945 0.13335,-0.1284111 0.271639,-0.2568223 z M 85.336677,2.3098325 q 0,-0.069145 -0.148166,-0.2024945 l -0.03457,1.0075335 q 0.02963,0.0889 0.08396,0.1086556 0.07902,-0.04445 0.08396,-0.2024945 z m -0.05433,1.1557002 -0.05927,-0.029633 -0.04939,0.093839 0.04939,0.024694 z"
         style="font-family:'2 Prong Tree';-inkscape-font-specification:'2 Prong Tree'"
         id="path3664" />
    </g>
    <rect
       style="display:inline;fill:#4e4e4e;fill-opacity:1;stroke:#4e4e4e;stroke-width:4.16333;stroke-linecap:butt;stroke-linejoin:round;stroke-dasharray:none;stroke-opacity:1;paint-order:markers stroke fill"
       id="inputs-wrapper"
       width="13.557225"
       height="49.102489"
       x="14.841108"
       y="14.855853"
       inkscape:label="inputs-wrapper" />
    <g
       aria-label="CLK"
       transform="matrix(1.0674085,0,0,0.93684845,7.6199981,5.7758553e-6)"
       id="clock-label"
       style="font-size:3.77004px;fill:#b1b1b1;stroke-width:0.31417"
       inkscape:label="clock-label">
      <path
         d="m 9.1673991,17.986311 0.3571229,0.0902 q -0.1122912,0.439961 -0.4049848,0.671907 -0.2908527,0.230105 -0.712405,0.230105 -0.436279,0 -0.7105642,-0.176721 -0.2724443,-0.178561 -0.4160298,-0.515435 -0.1417447,-0.336874 -0.1417447,-0.72345 0,-0.421552 0.1601531,-0.734495 0.1619939,-0.314784 0.4583691,-0.476778 0.2982161,-0.163834 0.655339,-0.163834 0.4049848,0 0.6811108,0.206174 0.2761259,0.206174 0.3847355,0.579864 l -0.3516004,0.08284 Q 9.0330178,16.762153 8.8544563,16.627771 8.6758948,16.49339 8.4052914,16.49339 q -0.311102,0 -0.5209577,0.149108 -0.2080149,0.149108 -0.2926936,0.401303 -0.084679,0.250354 -0.084679,0.517276 0,0.344237 0.099405,0.601955 0.1012462,0.255876 0.3129427,0.382894 0.2116966,0.127018 0.4583692,0.127018 0.3000569,0 0.5080718,-0.173039 0.2080149,-0.173039 0.2816493,-0.513594 z"
         style="font-family:Arial;-inkscape-font-specification:Arial"
         id="path3613" />
      <path
         d="m 9.949756,18.932503 v -2.698671 h 0.357123 v 2.380205 h 1.329086 v 0.318466 z"
         style="font-family:Arial;-inkscape-font-specification:Arial"
         id="path3615" />
      <path
         d="m 12.046473,18.932503 v -2.698671 h 0.357123 v 1.33829 l 1.340131,-1.33829 h 0.484141 l -1.132117,1.093458 1.18182,1.605213 H 13.806316 L 12.845397,17.5666 12.403596,17.997356 v 0.935147 z"
         style="font-family:Arial;-inkscape-font-specification:Arial"
         id="path3617" />
    </g>
    <g
       aria-label="RESET"
       transform="matrix(1.0674085,0,0,0.93684845,7.6199981,5.7758553e-6)"
       id="reset-label"
       style="font-size:3.77004px;display:inline;fill:#b1b1b1;stroke-width:0.31417"
       inkscape:label="reset-label">
      <path
         d="m 6.8393564,56.889549 v -2.698671 h 1.1965459 q 0.3608046,0 0.5485703,0.07363 0.1877656,0.07179 0.3000569,0.255876 0.1122912,0.184084 0.1122912,0.406826 0,0.287171 -0.1859248,0.484141 -0.1859249,0.19697 -0.5743421,0.250354 0.1417447,0.06811 0.2153783,0.134381 0.1564714,0.143586 0.2963752,0.358964 l 0.4694142,0.734495 H 8.7685565 L 8.4114336,56.328093 Q 8.2549622,56.085102 8.153716,55.956243 8.0524698,55.827385 7.9714729,55.775841 7.8923168,55.724298 7.809479,55.704048 7.7487313,55.691163 7.6106683,55.691163 h -0.414189 v 1.198386 z m 0.3571229,-1.507648 h 0.7676302 q 0.2448317,0 0.3828947,-0.0497 0.138063,-0.05154 0.2098558,-0.161994 0.071793,-0.112291 0.071793,-0.242991 0,-0.191447 -0.1399038,-0.314784 Q 8.3506859,54.489094 8.050629,54.489094 H 7.1964793 Z"
         style="font-family:Arial;-inkscape-font-specification:Arial"
         id="path3595" />
      <path
         d="M 9.5637993,56.889549 V 54.190878 H 11.51509 v 0.318465 H 9.9209223 v 0.826537 h 1.4929207 v 0.316625 H 9.9209223 v 0.918579 h 1.6567557 v 0.318465 z"
         style="font-family:Arial;-inkscape-font-specification:Arial"
         id="path3597" />
      <path
         d="m 11.949528,56.022514 0.336873,-0.02945 q 0.02393,0.202493 0.110451,0.333192 0.08836,0.128859 0.272444,0.209856 0.184084,0.07916 0.414189,0.07916 0.204333,0 0.360805,-0.06075 0.156471,-0.06075 0.231945,-0.165675 0.07732,-0.106769 0.07732,-0.231946 0,-0.127018 -0.07363,-0.220901 -0.07363,-0.09572 -0.242991,-0.160153 -0.108609,-0.04234 -0.480459,-0.130699 -0.37185,-0.0902 -0.520958,-0.169358 -0.193288,-0.101246 -0.289011,-0.250354 -0.09388,-0.150949 -0.09388,-0.336874 0,-0.204333 0.115973,-0.381054 0.115973,-0.178561 0.338714,-0.270603 0.222742,-0.09204 0.495186,-0.09204 0.300057,0 0.528321,0.09756 0.230105,0.09572 0.353441,0.283489 0.123337,0.187766 0.132541,0.425234 l -0.342396,0.02577 q -0.02761,-0.255877 -0.187766,-0.386577 -0.158312,-0.130699 -0.469414,-0.130699 -0.323988,0 -0.473096,0.119654 -0.147267,0.117814 -0.147267,0.28533 0,0.145427 0.104928,0.23931 0.103087,0.09388 0.537525,0.193288 0.436279,0.09756 0.598273,0.171198 0.235627,0.108609 0.347919,0.276126 0.112291,0.165675 0.112291,0.382895 0,0.215378 -0.123336,0.406825 -0.123337,0.189607 -0.355283,0.296375 -0.230105,0.104928 -0.519116,0.104928 -0.366328,0 -0.614841,-0.106768 -0.246672,-0.106769 -0.388417,-0.320307 -0.139904,-0.215378 -0.147267,-0.485981 z"
         style="font-family:Arial;-inkscape-font-specification:Arial"
         id="path3599" />
      <path
         d="m 14.592974,56.889549 v -2.698671 h 1.95129 v 0.318465 h -1.594167 v 0.826537 h 1.492921 v 0.316625 h -1.492921 v 0.918579 h 1.656756 v 0.318465 z"
         style="font-family:Arial;-inkscape-font-specification:Arial"
         id="path3601" />
      <path
         d="m 17.78683,56.889549 v -2.380206 h -0.889125 v -0.318465 h 2.139056 v 0.318465 h -0.892808 v 2.380206 z"
         style="font-family:Arial;-inkscape-font-specification:Arial"
         id="path3603" />
    </g>
    <g
       aria-label="RUN"
       transform="matrix(1.0291781,0,0,0.97164912,7.6199981,5.7758553e-6)"
       id="run-label"
       style="font-size:3.63501px;display:inline;fill:#b1b1b1;stroke-width:0.302918"
       inkscape:label="run-label">
      <path
         d="m 7.5166136,36.585476 v -2.602014 h 1.1536897 q 0.3478818,0 0.5289224,0.071 0.1810405,0.06922 0.2893099,0.246712 0.1082693,0.177491 0.1082693,0.392255 0,0.276885 -0.1792656,0.4668 -0.1792657,0.189915 -0.5537711,0.241388 0.1366679,0.06567 0.2076642,0.129568 0.1508671,0.138443 0.28576,0.346107 L 9.8097938,36.58548 H 9.3767164 l -0.344332,-0.541347 q -0.1508671,-0.234288 -0.248487,-0.358531 -0.09762,-0.124244 -0.1757158,-0.173941 -0.076321,-0.0497 -0.1561919,-0.06922 -0.058572,-0.01243 -0.1916899,-0.01243 H 7.8609456 v 1.155465 z m 0.344332,-1.453649 h 0.7401363 q 0.2360627,0 0.3691807,-0.04792 0.1331181,-0.0497 0.2023395,-0.156191 0.069221,-0.10827 0.069221,-0.234288 0,-0.184591 -0.1348929,-0.303509 Q 8.9738122,34.271 8.6845023,34.271 h -0.823557 z"
         style="font-family:Arial;-inkscape-font-specification:Arial"
         id="path3606" />
      <path
         d="m 11.843837,33.983462 h 0.344332 v 1.503346 q 0,0.392255 -0.08874,0.622993 -0.08875,0.230738 -0.321258,0.37628 -0.230738,0.143768 -0.607018,0.143768 -0.365631,0 -0.598144,-0.126019 -0.232513,-0.126018 -0.331908,-0.363856 -0.0994,-0.239612 -0.0994,-0.653166 v -1.503346 h 0.344332 v 1.501571 q 0,0.339008 0.06212,0.500524 0.0639,0.159742 0.216539,0.246712 0.154417,0.08697 0.37628,0.08697 0.37983,0 0.541347,-0.172166 0.161516,-0.172166 0.161516,-0.662041 z"
         style="font-family:Arial;-inkscape-font-specification:Arial"
         id="path3608" />
      <path
         d="m 12.757915,36.585476 v -2.602014 h 0.353206 L 14.4778,36.02638 v -2.042918 h 0.330132 v 2.602014 h -0.353206 l -1.366679,-2.044693 v 2.044693 z"
         style="font-family:Arial;-inkscape-font-specification:Arial"
         id="path3610" />
    </g>
    <rect
       style="fill:#b1b1b1;fill-opacity:1;stroke:#4e4e4e;stroke-width:1.25351;stroke-linejoin:round;stroke-dasharray:none;stroke-opacity:1;paint-order:markers stroke fill"
       id="knobs-wrapper"
       width="99.090294"
       height="95.905357"
       x="35.541813"
       y="12.687885"
       inkscape:label="knobs-wrapper" />
    <rect
       style="fill:#d7d7d7;fill-opacity:1;stroke:#4e4e4e;stroke-width:1.71042;stroke-linejoin:round;stroke-dasharray:none;stroke-opacity:1;paint-order:markers stroke fill"
       id="x-out-wrapper"
       width="98.084152"
       height="13.529586"
       x="35.676151"
       y="112.6152"
       inkscape:label="x-out-wrapper" />
    <rect
       style="fill:#d7d7d7;fill-opacity:1;stroke:#4e4e4e;stroke-width:1.49239;stroke-linejoin:round;stroke-dasharray:none;stroke-opacity:1;paint-order:markers stroke fill"
       id="y-out-wrapper"
       width="14.431805"
       height="95.730827"
       x="137.22198"
       y="12.762017"
       inkscape:label="y-out-wrapper" />
    <g
       aria-label="Y Out"
       transform="matrix(1.2971253,0,0,1.1862872,-17.615562,-2.8798911)"
       id="y-out-label"
       style="font-size:3.70996px;font-family:Arial;-inkscape-font-specification:Arial;fill:#4e4e4e;stroke-width:1.50735;stroke-linejoin:round;paint-order:markers stroke fill"
       inkscape:label="y-out-label">
      <path
         d="M 120.75639,10.946904 V 9.8219603 l -1.0235,-1.5307208 h 0.42752 l 0.52352,0.8006847 q 0.14492,0.2246265 0.26992,0.449253 0.11955,-0.208323 0.28984,-0.4691796 l 0.51446,-0.7807581 h 0.4094 l -1.05973,1.5307208 v 1.1249437 z"
         id="path3667" />
      <path
         d="m 123.3396,9.6534904 q 0,-0.6611989 0.35505,-1.0343687 0.35506,-0.3749813 0.91662,-0.3749813 0.36774,0 0.66301,0.1757158 0.29528,0.1757159 0.44926,0.4909176 0.15578,0.3133902 0.15578,0.711921 0,0.4039652 -0.16303,0.7227902 -0.16304,0.318825 -0.46193,0.483671 -0.2989,0.163036 -0.6449,0.163036 -0.37498,0 -0.67026,-0.181151 -0.29527,-0.18115 -0.44744,-0.49454 -0.15216,-0.31339 -0.15216,-0.6630106 z m 0.3623,0.00543 q 0,0.4800486 0.25723,0.7572096 0.25905,0.275348 0.64852,0.275348 0.39672,0 0.65214,-0.278971 0.25723,-0.278972 0.25723,-0.7916282 0,-0.3242592 -0.1105,-0.5651892 -0.10869,-0.2427415 -0.32063,-0.3749813 -0.21014,-0.1340513 -0.47281,-0.1340513 -0.37317,0 -0.64308,0.2572336 -0.2681,0.255422 -0.2681,0.8550298 z"
         id="path3669" />
      <path
         d="M 127.55134,10.946904 V 10.66431 q -0.22462,0.32607 -0.61047,0.32607 -0.17029,0 -0.31883,-0.06521 -0.14673,-0.06521 -0.21919,-0.163035 -0.0707,-0.09963 -0.0996,-0.242742 -0.0199,-0.09601 -0.0199,-0.304332 v -1.19197 h 0.32607 v 1.066976 q 0,0.255422 0.0199,0.344186 0.0308,0.128616 0.13043,0.202888 0.0996,0.07246 0.24636,0.07246 0.14673,0 0.27535,-0.07427 0.12862,-0.07608 0.18115,-0.2047 0.0543,-0.130429 0.0543,-0.376793 V 9.023087 h 0.32608 v 1.923817 z"
         id="path3671" />
      <path
         d="m 129.06576,10.655252 0.0471,0.288029 q -0.13767,0.02898 -0.24637,0.02898 -0.17752,0 -0.27534,-0.05616 -0.0978,-0.05616 -0.13768,-0.146732 -0.0399,-0.09239 -0.0399,-0.385851 V 9.2766976 H 128.1745 V 9.023087 h 0.23912 V 8.5466615 l 0.32426,-0.1956424 V 9.023087 h 0.32788 v 0.2536106 h -0.32788 v 1.1249444 q 0,0.139485 0.0163,0.179338 0.0181,0.03985 0.0562,0.0634 0.0399,0.02355 0.11231,0.02355 0.0543,0 0.14311,-0.01268 z"
         id="path3673" />
    </g>
    <g
       aria-label="X Out"
       transform="matrix(1.078997,0,0,1.037363,6.7603393,-8.5572984)"
       id="x-out-label"
       style="font-size:3.69998px;font-family:Arial;-inkscape-font-specification:Arial;display:inline;fill:#4e4e4e;stroke-width:1.50329;stroke-linejoin:round;paint-order:markers stroke fill"
       inkscape:label="x-out-label">
      <path
         d="m 14.124218,126.02484 1.024359,-1.38026 -0.903315,-1.26826 h 0.417332 l 0.480563,0.67929 q 0.149951,0.21138 0.213183,0.3252 0.08853,-0.14453 0.209569,-0.30171 l 0.532956,-0.70278 h 0.381199 l -0.930415,1.24838 1.00268,1.40014 h -0.433591 l -0.666647,-0.94487 q -0.056,-0.0813 -0.115624,-0.17705 -0.08853,0.14453 -0.126464,0.19873 l -0.66484,0.92319 z"
         id="path3676" />
      <path
         d="m 17.782645,124.73491 q 0,-0.65942 0.3541,-1.03159 0.354099,-0.37397 0.914155,-0.37397 0.366746,0 0.661227,0.17524 0.294481,0.17524 0.448044,0.4896 0.155371,0.31255 0.155371,0.71 0,0.40288 -0.162597,0.72085 -0.162597,0.31797 -0.460691,0.48237 -0.298094,0.1626 -0.643161,0.1626 -0.373972,0 -0.668453,-0.18067 -0.294481,-0.18066 -0.446238,-0.49321 -0.151757,-0.31254 -0.151757,-0.66122 z m 0.361326,0.005 q 0,0.47875 0.256542,0.75517 0.258348,0.27461 0.646774,0.27461 0.395652,0 0.650387,-0.27822 0.256541,-0.27823 0.256541,-0.7895 0,-0.32339 -0.110204,-0.56367 -0.108398,-0.24209 -0.319774,-0.37397 -0.209569,-0.13369 -0.47153,-0.13369 -0.372166,0 -0.641354,0.25654 -0.267382,0.25473 -0.267382,0.85273 z"
         id="path3678" />
      <path
         d="m 21.983062,126.02484 v -0.28183 q -0.224023,0.32519 -0.608835,0.32519 -0.169823,0 -0.317967,-0.065 -0.146337,-0.065 -0.218602,-0.1626 -0.07046,-0.0994 -0.09937,-0.24208 -0.01987,-0.0958 -0.01987,-0.30352 v -1.18876 h 0.325194 v 1.0641 q 0,0.25474 0.01987,0.34326 0.03071,0.12828 0.130077,0.20235 0.09937,0.0723 0.245702,0.0723 0.146337,0 0.274608,-0.0741 0.12827,-0.0759 0.180663,-0.20415 0.0542,-0.13008 0.0542,-0.37578 v -1.02797 h 0.325193 v 1.91864 z"
         id="path3680" />
      <path
         d="m 23.493405,125.73397 0.04697,0.28726 q -0.137304,0.0289 -0.245702,0.0289 -0.17705,0 -0.274608,-0.056 -0.09756,-0.056 -0.137304,-0.14634 -0.03975,-0.0921 -0.03975,-0.38481 v -1.10385 h -0.238475 v -0.25293 h 0.238475 v -0.47514 l 0.323387,-0.19512 v 0.67026 h 0.327 v 0.25293 h -0.327 v 1.12192 q 0,0.13911 0.01626,0.17885 0.01807,0.0398 0.056,0.0632 0.03975,0.0235 0.112011,0.0235 0.0542,0 0.142724,-0.0126 z"
         id="path3682" />
    </g>
    <rect
       style="fill:#4e4e4e;fill-opacity:1;stroke:#4e4e4e;stroke-width:1.13178;stroke-linejoin:round;stroke-dasharray:none;stroke-opacity:1;paint-order:markers stroke fill"
       id="total-pitch-out-wrapper"
       width="14.258221"
       height="14.489978"
       x="137.57588"
       y="111.94412"
       ry="3.6269606e-07"
       inkscape:label="total-pitch-out-wrapper" />
    <g
       aria-label="Algorithm"
       transform="scale(1.0160103,0.98424202)"
       id="algorithm-label"
       style="font-size:3.60517px;font-family:Arial;-inkscape-font-specification:Arial;display:inline;fill:#4e4e4e;stroke-width:0.227098;stroke-linejoin:round;paint-order:markers stroke fill"
       inkscape:label="algorithm-label">
      <path
         d="m 12.49989,110.20993 0.991069,-2.58065 h 0.367911 l 1.056202,2.58065 h -0.389034 l -0.301018,-0.78159 h -1.079087 l -0.283414,0.78159 z m 0.744622,-1.05972 H 14.1194 l -0.269332,-0.7147 q -0.123223,-0.32566 -0.183075,-0.53514 -0.04929,0.24821 -0.139066,0.49289 z"
         id="path2405" />
      <path
         d="m 15.140395,110.20993 v -2.58065 h 0.316861 v 2.58065 z"
         id="path2407" />
      <path
         d="m 15.890299,110.36484 0.308059,0.0458 q 0.01936,0.14259 0.10738,0.20772 0.117943,0.088 0.322142,0.088 0.220042,0 0.339745,-0.088 0.119703,-0.088 0.161951,-0.24645 0.02464,-0.0968 0.02288,-0.40664 -0.207719,0.24469 -0.517539,0.24469 -0.385514,0 -0.596754,-0.27813 -0.21124,-0.27814 -0.21124,-0.66717 0,-0.26757 0.09682,-0.49289 0.09682,-0.22709 0.279894,-0.35031 0.184835,-0.12323 0.433043,-0.12323 0.330943,0 0.545704,0.26758 v -0.22533 h 0.292216 v 1.61599 q 0,0.43657 -0.08978,0.61788 -0.08802,0.18308 -0.281654,0.2887 -0.191877,0.10562 -0.473531,0.10562 -0.334464,0 -0.540423,-0.15139 -0.20596,-0.14963 -0.198918,-0.45241 z m 0.26229,-1.12309 q 0,0.36791 0.146108,0.5369 0.146108,0.16899 0.36615,0.16899 0.218282,0 0.36615,-0.16723 0.147868,-0.16899 0.147868,-0.5281 0,-0.34327 -0.153149,-0.51754 -0.151389,-0.17428 -0.36615,-0.17428 -0.21124,0 -0.359109,0.17252 -0.147868,0.17075 -0.147868,0.50874 z"
         id="path2409" />
      <path
         d="m 17.835471,109.27519 q 0,-0.5193 0.288695,-0.76927 0.241166,-0.20772 0.587953,-0.20772 0.385513,0 0.6302,0.25349 0.244687,0.25173 0.244687,0.6971 0,0.36087 -0.109141,0.56859 -0.10738,0.20595 -0.3151,0.32038 -0.20596,0.11442 -0.450646,0.11442 -0.392556,0 -0.635482,-0.25173 -0.241166,-0.25173 -0.241166,-0.72526 z m 0.325662,0 q 0,0.35911 0.15667,0.53866 0.15667,0.1778 0.394316,0.1778 0.235885,0 0.392555,-0.17956 0.15667,-0.17955 0.15667,-0.54746 0,-0.34679 -0.158431,-0.52458 -0.15667,-0.17956 -0.390794,-0.17956 -0.237646,0 -0.394316,0.1778 -0.15667,0.17779 -0.15667,0.5369 z"
         id="path2411" />
      <path
         d="m 19.954917,110.20993 v -1.86948 h 0.285174 v 0.28342 q 0.109141,-0.19892 0.200679,-0.26229 0.0933,-0.0634 0.204199,-0.0634 0.16019,0 0.325662,0.1021 l -0.109141,0.29398 q -0.116182,-0.0687 -0.232364,-0.0687 -0.10386,0 -0.186596,0.0634 -0.08274,0.0616 -0.117943,0.17251 -0.05281,0.16899 -0.05281,0.36967 v 0.97875 z"
         id="path2413" />
      <path
         d="m 21.160747,107.99367 v -0.36439 h 0.31686 v 0.36439 z m 0,2.21626 v -1.86948 h 0.31686 v 1.86948 z"
         id="path2415" />
      <path
         d="m 22.651753,109.92652 0.04577,0.27989 q -0.133785,0.0282 -0.239405,0.0282 -0.172513,0 -0.267572,-0.0546 -0.09506,-0.0546 -0.133785,-0.14258 -0.03873,-0.0898 -0.03873,-0.37495 v -1.07557 h -0.232364 v -0.24645 h 0.232364 v -0.46297 l 0.315101,-0.19011 v 0.65308 h 0.318621 v 0.24645 h -0.318621 v 1.09317 q 0,0.13554 0.01584,0.17427 0.0176,0.0387 0.05457,0.0616 0.03873,0.0229 0.109141,0.0229 0.05281,0 0.139067,-0.0123 z"
         id="path2417" />
      <path
         d="m 22.961572,110.20993 v -2.58065 h 0.316861 v 0.92593 q 0.221802,-0.25701 0.559787,-0.25701 0.20772,0 0.360869,0.0827 0.153149,0.081 0.218282,0.22532 0.06689,0.14435 0.06689,0.41896 v 1.18471 h -0.31686 v -1.18471 q 0,-0.23764 -0.10386,-0.34502 -0.1021,-0.10914 -0.290456,-0.10914 -0.140827,0 -0.265811,0.0739 -0.123223,0.0722 -0.176033,0.19716 -0.05281,0.12498 -0.05281,0.34502 v 1.02276 z"
         id="path2419" />
      <path
         d="m 24.966596,110.20993 v -1.86948 h 0.283414 v 0.26229 q 0.08802,-0.1373 0.234125,-0.22004 0.146108,-0.0845 0.332704,-0.0845 0.207719,0 0.339745,0.0863 0.133785,0.0863 0.188356,0.24117 0.221802,-0.32743 0.57739,-0.32743 0.278134,0 0.427762,0.15491 0.149629,0.15315 0.149629,0.47353 v 1.28329 h -0.3151 v -1.17766 q 0,-0.19012 -0.03169,-0.27286 -0.02992,-0.0845 -0.110901,-0.13554 -0.08097,-0.0511 -0.190116,-0.0511 -0.197158,0 -0.327423,0.13202 -0.130265,0.13027 -0.130265,0.41896 v 1.08613 h -0.31686 v -1.21463 q 0,-0.21124 -0.07746,-0.31686 -0.07746,-0.10562 -0.253489,-0.10562 -0.133785,0 -0.248207,0.0704 -0.112662,0.0704 -0.163712,0.20596 -0.05105,0.13555 -0.05105,0.39079 v 0.96995 z"
         id="path2421" />
    </g>
    <path
       style="display:inline;fill:none;fill-rule:evenodd;stroke:#000000;stroke-width:0.264583px;stroke-linecap:butt;stroke-linejoin:miter;stroke-opacity:1"
       d="m 20.319999,76.199996 v 10.16"
       id="alg-pointer-line"
       inkscape:connector-type="polyline"
       inkscape:connector-curvature="0"
       inkscape:label="alg-pointer-line" />
  </g>
  <g
     inkscape:groupmode="layer"
     id="layer2"
     inkscape:label="components"
     style="display:inline">
    <ellipse
       style="fill:#ff0000;fill-opacity:1;stroke:none;stroke-width:0.1;stroke-linejoin:round;paint-order:markers stroke fill"
       id="x1-y1-knob"
       cx="43.179996"
       cy="20.320007"
       inkscape:label="x1-y1-knob"
       rx="2.5399995"
       ry="2.5399997" />
    <ellipse
       style="fill:#ff0000;fill-opacity:1;stroke:none;stroke-width:0.1;stroke-linejoin:round;paint-order:markers stroke fill"
       id="x2-y1-knob"
       cx="71.119995"
       cy="20.320007"
       inkscape:label="x2-y1-knob"
       rx="2.5400033"
       ry="2.5399997" />
    <ellipse
       style="fill:#ff0000;fill-opacity:1;stroke:none;stroke-width:0.1;stroke-linejoin:round;paint-order:markers stroke fill"
       id="x3-y1-knob"
       cx="99.059998"
       cy="20.320007"
       inkscape:label="x3-y1-knob"
       rx="2.5400021"
       ry="2.5399997" />
    <ellipse
       style="fill:#ff0000;fill-opacity:1;stroke:none;stroke-width:0.1;stroke-linejoin:round;paint-order:markers stroke fill"
       id="x4-y1-knob"
       cx="126.99999"
       cy="20.320007"
       inkscape:label="x4-y1-knob"
       rx="2.5399985"
       ry="2.5399997" />
    <ellipse
       style="fill:#ff0000;fill-opacity:1;stroke:none;stroke-width:0.1;stroke-linejoin:round;paint-order:markers stroke fill"
       id="x1-y2-knob"
       cx="43.179993"
       cy="43.18"
       inkscape:label="x1-y2-knob"
       rx="2.5399995"
       ry="2.5400002" />
    <ellipse
       style="fill:#ff0000;fill-opacity:1;stroke:none;stroke-width:0.1;stroke-linejoin:round;paint-order:markers stroke fill"
       id="x2-y2-knob"
       cx="71.119995"
       cy="43.18"
       inkscape:label="x2-y2-knob"
       rx="2.5400016"
       ry="2.5400002" />
    <ellipse
       style="fill:#ff0000;fill-opacity:1;stroke:none;stroke-width:0.1;stroke-linejoin:round;paint-order:markers stroke fill"
       id="x3-y2-knob"
       cx="99.059998"
       cy="43.18"
       inkscape:label="x3-y2-knob"
       rx="2.539999"
       ry="2.5400002" />
    <ellipse
       style="fill:#ff0000;fill-opacity:1;stroke:none;stroke-width:0.1;stroke-linejoin:round;paint-order:markers stroke fill"
       id="x4-y2-knob"
       cx="126.99999"
       cy="43.18"
       inkscape:label="x4-y2-knob"
       rx="2.5400043"
       ry="2.5399997" />
    <ellipse
       style="fill:#ff0000;fill-opacity:1;stroke:none;stroke-width:0.0999999;stroke-linejoin:round;paint-order:markers stroke fill"
       id="x1-y3-knob"
       cx="43.179989"
       cy="66.039993"
       inkscape:label="x1-y3-knob"
       rx="2.5399995"
       ry="2.5399985" />
    <ellipse
       style="fill:#ff0000;fill-opacity:1;stroke:none;stroke-width:0.0999999;stroke-linejoin:round;paint-order:markers stroke fill"
       id="x2-y3-knob"
       cx="71.119987"
       cy="66.039993"
       inkscape:label="x2-y3-knob"
       rx="2.5399995"
       ry="2.5399985" />
    <ellipse
       style="fill:#ff0000;fill-opacity:1;stroke:none;stroke-width:0.1;stroke-linejoin:round;paint-order:markers stroke fill"
       id="x3-y3-knob"
       cx="99.059998"
       cy="66.040001"
       inkscape:label="x3-y3-knob"
       rx="2.539999"
       ry="2.5399971" />
    <ellipse
       style="fill:#ff0000;fill-opacity:1;stroke:none;stroke-width:0.0999999;stroke-linejoin:round;paint-order:markers stroke fill"
       id="x4-y3-knob"
       cx="126.99999"
       cy="66.039993"
       inkscape:label="x4-y3-knob"
       rx="2.539988"
       ry="2.5399985" />
    <circle
       style="fill:#ff0000;fill-opacity:1;stroke:none;stroke-width:0.1;stroke-linejoin:round;paint-order:markers stroke fill"
       id="x1-y4-knob"
       cx="43.179993"
       cy="88.899994"
       inkscape:label="x1-y4-knob"
       r="2.5400004" />
    <ellipse
       style="fill:#ff0000;fill-opacity:1;stroke:none;stroke-width:0.1;stroke-linejoin:round;paint-order:markers stroke fill"
       id="x2-y4-knob"
       cx="71.119995"
       cy="88.899994"
       inkscape:label="x2-y4-knob"
       rx="2.5399988"
       ry="2.539999" />
    <ellipse
       style="fill:#ff0000;fill-opacity:1;stroke:none;stroke-width:0.1;stroke-linejoin:round;paint-order:markers stroke fill"
       id="x3-y4-knob"
       cx="99.060005"
       cy="88.899994"
       inkscape:label="x3-y4-knob"
       rx="2.539999"
       ry="2.5399957" />
    <ellipse
       style="fill:#ff0000;fill-opacity:1;stroke:none;stroke-width:0.1;stroke-linejoin:round;paint-order:markers stroke fill"
       id="x4-y4-knob"
       cx="126.99999"
       cy="88.899994"
       inkscape:label="x4-y4-knob"
       rx="2.539994"
       ry="2.5399978" />
    <ellipse
       style="display:inline;fill:#ff00ff;fill-opacity:1;stroke:none;stroke-width:0.1;stroke-linejoin:round;paint-order:markers stroke fill"
       id="x1-y1-light"
       cx="43.179993"
       cy="31.750006"
       inkscape:label="x1-y1-light"
       rx="1.269999"
       ry="1.2699997" />
    <ellipse
       style="display:inline;fill:#ff00ff;fill-opacity:1;stroke:none;stroke-width:0.0999995;stroke-linejoin:round;paint-order:markers stroke fill"
       id="x2-y1-light"
       cx="71.119995"
       cy="31.750006"
       inkscape:label="x2-y1-light"
       rx="1.2700028"
       ry="1.2699999" />
    <ellipse
       style="display:inline;fill:#ff00ff;fill-opacity:1;stroke:none;stroke-width:0.1;stroke-linejoin:round;paint-order:markers stroke fill"
       id="x3-y1-light"
       cx="99.059998"
       cy="31.750006"
       inkscape:label="x3-y1-light"
       rx="1.2700005"
       ry="1.2699997" />
    <ellipse
       style="display:inline;fill:#ff00ff;fill-opacity:1;stroke:none;stroke-width:0.1;stroke-linejoin:round;paint-order:markers stroke fill"
       id="x4-y1-light"
       cx="126.99999"
       cy="31.750006"
       inkscape:label="x4-y1-light"
       rx="1.2699993"
       ry="1.2699997" />
    <ellipse
       style="display:inline;fill:#ff00ff;fill-opacity:1;stroke:none;stroke-width:0.1;stroke-linejoin:round;paint-order:markers stroke fill"
       id="x1-y2-light"
       cx="43.179993"
       cy="54.610001"
       inkscape:label="x1-y2-light"
       rx="1.2700002"
       ry="1.2699994" />
    <ellipse
       style="display:inline;fill:#ff00ff;fill-opacity:1;stroke:none;stroke-width:0.1;stroke-linejoin:round;paint-order:markers stroke fill"
       id="x2-y2-light"
       cx="71.119995"
       cy="54.610001"
       inkscape:label="x2-y2-light"
       rx="1.2700036"
       ry="1.2700003" />
    <ellipse
       style="display:inline;fill:#ff00ff;fill-opacity:1;stroke:none;stroke-width:0.1;stroke-linejoin:round;paint-order:markers stroke fill"
       id="x3-y2-light"
       cx="99.059998"
       cy="54.610001"
       inkscape:label="x3-y2-light"
       rx="1.2700002"
       ry="1.2700003" />
    <ellipse
       style="display:inline;fill:#ff00ff;fill-opacity:1;stroke:none;stroke-width:0.1;stroke-linejoin:round;paint-order:markers stroke fill"
       id="x4-y2-light"
       cx="126.99999"
       cy="54.609997"
       inkscape:label="x4-y2-light"
       rx="1.2699996"
       ry="1.2700008" />
    <ellipse
       style="display:inline;fill:#ff00ff;fill-opacity:1;stroke:none;stroke-width:0.1;stroke-linejoin:round;paint-order:markers stroke fill"
       id="x1-y3-light"
       cx="43.179985"
       cy="77.469994"
       inkscape:label="x1-y3-light"
       rx="1.2699995"
       ry="1.2699988" />
    <ellipse
       style="display:inline;fill:#ff00ff;fill-opacity:1;stroke:none;stroke-width:0.1;stroke-linejoin:round;paint-order:markers stroke fill"
       id="x2-y3-light"
       cx="71.119987"
       cy="77.469994"
       inkscape:label="x2-y3-light"
       rx="1.2700018"
       ry="1.2699988" />
    <ellipse
       style="display:inline;fill:#ff00ff;fill-opacity:1;stroke:none;stroke-width:0.1;stroke-linejoin:round;paint-order:markers stroke fill"
       id="x3-y3-light"
       cx="99.059998"
       cy="77.469994"
       inkscape:label="x3-y3-light"
       rx="1.2700002"
       ry="1.2699988" />
    <ellipse
       style="display:inline;fill:#ff00ff;fill-opacity:1;stroke:none;stroke-width:0.1;stroke-linejoin:round;paint-order:markers stroke fill"
       id="x4-y3-light"
       cx="126.99999"
       cy="77.469994"
       inkscape:label="x4-y3-light"
       rx="1.2699996"
       ry="1.2699988" />
    <ellipse
       style="display:inline;fill:#ff00ff;fill-opacity:1;stroke:none;stroke-width:0.1;stroke-linejoin:round;paint-order:markers stroke fill"
       id="x1-y4-light"
       cx="43.179981"
       cy="100.32999"
       inkscape:label="x1-y4-light"
       rx="1.2700005"
       ry="1.2699993" />
    <ellipse
       style="display:inline;fill:#ff00ff;fill-opacity:1;stroke:none;stroke-width:0.0999999;stroke-linejoin:round;paint-order:markers stroke fill"
       id="x2-y4-light"
       cx="71.11998"
       cy="100.32999"
       inkscape:label="x2-y4-light"
       rx="1.2699989"
       ry="1.2699993" />
    <ellipse
       style="display:inline;fill:#ff00ff;fill-opacity:1;stroke:none;stroke-width:0.0999999;stroke-linejoin:round;paint-order:markers stroke fill"
       id="x3-y4-light"
       cx="99.059998"
       cy="100.32999"
       inkscape:label="x3-y4-light"
       rx="1.2699983"
       ry="1.2699993" />
    <ellipse
       style="display:inline;fill:#ff00ff;fill-opacity:1;stroke:none;stroke-width:0.1;stroke-linejoin:round;paint-order:markers stroke fill"
       id="x4-y4-light"
       cx="126.99999"
       cy="100.32999"
       inkscape:label="x4-y4-light"
       rx="1.2699996"
       ry="1.2699993" />
    <ellipse
       style="display:inline;fill:#0000ff;fill-opacity:1;stroke:none;stroke-width:0.4;stroke-linejoin:round;paint-order:markers stroke fill"
       id="total-pitch-out"
       cx="144.77998"
       cy="119.38"
       inkscape:label="total-pitch-out"
       rx="2.5400045"
       ry="2.5399992" />
    <circle
       style="display:inline;fill:#0000ff;fill-opacity:1;stroke:none;stroke-width:0.2;stroke-linejoin:round;paint-order:markers stroke fill"
       id="x1-out"
       cx="43.179989"
       cy="119.38"
       r="2.54"
       inkscape:label="x1-out" />
    <circle
       style="display:inline;fill:#0000ff;fill-opacity:1;stroke:none;stroke-width:0.2;stroke-linejoin:round;paint-order:markers stroke fill"
       id="x2-out"
       cx="71.119995"
       cy="119.38"
       r="2.54"
       inkscape:label="x2-out" />
    <circle
       style="display:inline;fill:#0000ff;fill-opacity:1;stroke:none;stroke-width:0.2;stroke-linejoin:round;paint-order:markers stroke fill"
       id="x3-out"
       cx="99.059998"
       cy="119.38"
       r="2.54"
       inkscape:label="x3-out" />
    <circle
       style="display:inline;fill:#0000ff;fill-opacity:1;stroke:none;stroke-width:0.2;stroke-linejoin:round;paint-order:markers stroke fill"
       id="x4-out"
       cx="126.99999"
       cy="119.38"
       r="2.54"
       inkscape:label="x4-out" />
    <circle
       style="display:inline;fill:#0000ff;fill-opacity:1;stroke:none;stroke-width:0.2;stroke-linejoin:round;paint-order:markers stroke fill"
       id="y1-out"
       cx="144.77998"
       cy="20.320007"
       r="2.54"
       inkscape:label="y1-out" />
    <circle
       style="display:inline;fill:#0000ff;fill-opacity:1;stroke:none;stroke-width:0.2;stroke-linejoin:round;paint-order:markers stroke fill"
       id="y2-out"
       cx="144.77998"
       cy="43.18"
       r="2.54"
       inkscape:label="y2-out" />
    <circle
       style="display:inline;fill:#0000ff;fill-opacity:1;stroke:none;stroke-width:0.2;stroke-linejoin:round;paint-order:markers stroke fill"
       id="y3-out"
       cx="144.77998"
       cy="66.040001"
       r="2.54"
       inkscape:label="y3-out" />
    <circle
       style="display:inline;fill:#0000ff;fill-opacity:1;stroke:none;stroke-width:0.2;stroke-linejoin:round;paint-order:markers stroke fill"
       id="y4-out"
       cx="144.77998"
       cy="88.899994"
       r="2.54"
       inkscape:label="y4-out" />
    <circle
       style="display:inline;fill:#00ff00;fill-opacity:1;stroke:none;stroke-width:0.2;stroke-linejoin:round;paint-order:markers stroke fill"
       id="clock-in"
       cx="20.32"
       cy="25.400007"
       r="2.54" />
    <circle
       style="display:inline;fill:#00ff00;fill-opacity:1;stroke:none;stroke-width:0.2;stroke-linejoin:round;paint-order:markers stroke fill"
       id="run-in"
       cx="20.32"
       cy="43.180004"
       r="2.54"
       inkscape:label="run-in" />
    <circle
       style="display:inline;fill:#00ff00;fill-opacity:1;stroke:none;stroke-width:0.2;stroke-linejoin:round;paint-order:markers stroke fill"
       id="reset-in"
       cx="20.32"
       cy="60.960003"
       r="2.54"
       inkscape:label="reset-in" />
    <circle
       style="fill:#ff0000;fill-opacity:1;stroke-width:0.2;stroke-linejoin:round;paint-order:markers stroke fill"
       id="algorithm-knob"
       cx="20.32"
       cy="88.899994"
       r="2.5399997"
       inkscape:label="algorithm-knob" />
    <circle
       style="fill:#00ff00;fill-opacity:1;stroke-width:0.2;stroke-linejoin:round;paint-order:markers stroke fill"
       id="algorithm-fm"
       cx="20.32"
       cy="73.659996"
       r="2.5399997"
       inkscape:label="algorithm-fm" />
  </g>
</svg>
